<svg xmlns="http://www.w3.org/2000/svg" width="598.8" height="588.0" viewBox="0 0 598.8 588.0">
<rect x="0" y="0" width="598.8" height="588.0" fill="#0e1118"/>
<rect x="24.0" y="24.0" width="550.8" height="540.0" fill="#161b26" stroke="#2a3344"/>
<rect x="19.5" y="19.5" width="9.0" height="549.0" fill="#3a4659"/>
<rect x="574.8" y="19.5" width="9.0" height="549.0" fill="#3a4659"/>
<rect x="19.5" y="15.0" width="559.8" height="9.0" fill="#3a4659"/>
<rect x="19.5" y="564.0" width="559.8" height="9.0" fill="#3a4659"/>
<line x1="82.1" y1="294.0" x2="82.1" y2="564.0" stroke="#5b6b86" stroke-dasharray="6 5"/>
<circle cx="82.1" cy="564.0" r="10" fill="none" stroke="#e0556b" stroke-width="3"/>
<polyline points="82.0,294.1 82.0,294.3 82.0,294.5 82.0,295.1 82.0,296.2 81.9,296.9 82.1,297.3 82.3,297.3 82.7,297.2 83.1,297.2 83.6,297.1 84.0,297.0 84.4,296.9 84.7,296.8 85.0,296.8 85.3,296.8 85.6,296.9 86.0,297.0 86.4,297.0 86.9,297.0 87.5,297.2 88.0,297.4 88.4,297.5 88.8,297.5 89.1,297.4 89.5,297.4 89.8,297.5 90.1,297.8 90.4,297.9 90.6,298.0 90.9,298.0 91.2,298.0 91.6,298.1 91.9,298.2 92.2,298.2 92.5,298.2 92.8,298.1 93.2,298.1 93.6,298.3 93.9,298.4 94.2,298.4 94.5,298.4 94.8,298.3 95.1,298.4 95.4,298.5 95.7,298.6 96.0,298.6 96.4,298.6 96.8,298.7 97.2,298.9 97.5,299.1 97.9,299.2 98.3,299.2 98.6,299.2 98.9,299.2 99.1,299.4 99.3,299.6 99.5,299.8 99.7,299.8 99.9,299.7 100.1,299.8 100.2,299.9 100.4,300.1 100.7,300.1 100.9,300.0 101.2,300.1 101.5,300.2 101.8,300.3 102.1,300.5 102.4,300.5 102.7,300.5 103.0,300.5 103.3,300.6 103.5,300.8 103.9,300.9 104.2,301.0 104.6,301.0 105.0,301.2 105.3,301.4 105.6,301.6 106.0,301.8 106.3,301.8 106.6,301.8 106.9,301.9 107.1,302.1 107.3,302.4 107.4,302.5 107.6,302.5 107.8,302.5 108.0,302.6 108.1,302.8 108.3,302.9 108.5,302.9 108.8,302.9 109.1,303.0 109.4,303.1 109.6,303.3 109.9,303.5 110.2,303.5 110.6,303.6 110.8,303.6 111.1,303.8 111.3,304.0 111.6,304.1 112.0,304.2 112.4,304.3 112.7,304.5 113.0,304.8 113.3,305.0 113.6,305.2 114.0,305.2 114.3,305.3 114.5,305.4 114.7,305.7 114.8,305.9 115.0,306.0 115.2,306.1 115.4,306.1 115.5,306.2 115.7,306.4 115.8,306.5 116.1,306.5 116.3,306.5 116.6,306.7 116.9,306.9 117.1,307.1 117.4,307.3 117.7,307.4 118.0,307.4 118.3,307.5 118.5,307.7 118.7,307.9 119.0,308.0 119.4,308.2 119.8,308.3 120.1,308.6 120.3,308.9 120.6,309.1 120.9,309.3 121.2,309.4 121.5,309.5 121.8,309.7 121.9,310.0 122.0,310.2 122.2,310.3 122.4,310.3 122.5,310.4 122.6,310.5 122.8,310.7 122.9,310.9 123.2,310.9 123.5,311.0 123.7,311.1 123.9,311.4 124.2,311.6 124.4,311.8 124.7,311.9 125.0,312.0 125.2,312.1 125.4,312.4 125.7,312.6 126.0,312.7 126.3,312.9 126.7,313.1 126.9,313.4 127.1,313.8 127.4,314.0 127.7,314.2 128.0,314.3 128.3,314.4 128.5,314.7 128.6,315.0 128.7,315.2 128.8,315.3 129.0,315.4 129.2,315.5 129.3,315.6 129.4,315.8 129.6,316.0 129.8,316.0 130.1,316.1 130.3,316.3 130.5,316.6 130.7,316.8 131.0,317.0 131.3,317.2 131.5,317.3 131.7,317.5 131.9,317.7 132.1,317.9 132.4,318.2 132.8,318.3 133.1,318.6 133.2,319.0 133.4,319.3 133.7,319.6 134.0,319.8 134.3,319.9 134.5,320.1 134.7,320.3 134.7,320.6 134.8,320.9 135.0,321.0 135.2,321.0 135.3,321.2 135.3,321.4 135.4,321.6 135.6,321.7 135.9,321.7 136.1,321.9 136.3,322.2 136.5,322.5 136.7,322.7 136.9,322.9 137.2,323.1 137.4,323.2 137.6,323.4 137.8,323.7 138.0,324.0 138.2,324.2 138.6,324.4 138.8,324.7 139.0,325.1 139.1,325.4 139.4,325.7 139.6,326.0 139.9,326.1 140.1,326.3 140.2,326.6 140.2,326.9 140.3,327.1 140.5,327.2 140.6,327.3 140.7,327.5 140.8,327.7 140.9,327.9 141.1,328.0 141.3,328.1 141.5,328.3 141.7,328.6 141.8,328.9 142.0,329.2 142.2,329.4 142.5,329.6 142.7,329.7 142.8,330.0 143.0,330.3 143.2,330.5 143.4,330.8 143.7,331.1 143.9,331.4 144.0,331.8 144.2,332.2 144.4,332.5 144.6,332.7 144.9,332.9 145.0,333.1 145.1,333.4 145.1,333.7 145.1,333.9 145.3,334.0 145.5,334.1 145.5,334.3 145.5,334.5 145.6,334.7 145.8,334.9 146.1,335.0 146.2,335.3 146.4,335.5 146.5,335.9 146.6,336.1 146.9,336.4 147.1,336.6 147.3,336.8 147.4,337.0 147.5,337.3 147.7,337.6 147.9,337.9 148.2,338.2 148.3,338.6 148.4,339.0 148.5,339.4 148.7,339.7 148.9,339.9 149.1,340.1 149.2,340.4 149.2,340.7 149.2,341.0 149.3,341.2 149.4,341.3 149.6,341.4 149.6,341.6 149.6,341.8 149.7,342.0 149.9,342.2 150.1,342.4 150.2,342.6 150.3,343.0 150.4,343.3 150.5,343.6 150.7,343.8 151.0,344.0 151.1,344.3 151.2,344.5 151.3,344.9 151.4,345.1 151.7,345.5 151.8,345.8 151.9,346.2 151.9,346.6 152.0,347.0 152.2,347.3 152.4,347.5 152.6,347.8 152.7,348.1 152.6,348.4 152.6,348.6 152.6,348.8 152.8,348.9 152.9,349.1 152.9,349.3 152.9,349.5 153.0,349.7 153.2,349.9 153.3,350.1 153.4,350.4 153.5,350.7 153.5,351.0 153.6,351.3 153.8,351.6 154.0,351.8 154.1,352.1 154.1,352.4 154.2,352.7 154.4,353.0 154.6,353.4 154.7,353.7 154.7,354.1 154.7,354.5 154.8,354.9 154.9,355.2 155.1,355.5 155.3,355.7 155.3,356.0 155.2,356.3 155.1,356.5 155.2,356.7 155.3,356.9 155.4,357.0 155.3,357.2 155.3,357.5 155.4,357.7 155.6,357.9 155.7,358.1 155.8,358.4 155.8,358.8 155.8,359.1 155.9,359.4 156.1,359.7 156.3,359.9 156.3,360.2 156.3,360.5 156.4,360.8 156.5,361.1 156.6,361.5 156.7,361.9 156.6,362.3 156.6,362.7 156.7,363.1 156.8,363.4 157.0,363.7 157.1,363.9 157.0,364.2 156.9,364.5 156.8,364.7 156.9,364.9 157.0,365.0 157.0,365.2 157.0,365.4 157.0,365.6 157.1,365.9 157.2,366.1 157.3,366.4 157.3,366.7 157.3,367.0 157.3,367.3 157.4,367.6 157.5,367.9 157.6,368.2 157.6,368.5 157.6,368.8 157.7,369.1 157.8,369.5 157.9,369.8 157.9,370.2 157.8,370.6 157.5,371.2 157.6,371.8 157.7,372.3 157.9,373.0 158.0,373.6 158.1,374.3 158.3,375.0 158.4,375.7 158.6,376.5 158.8,377.3 159.0,378.2 159.2,379.0 159.4,379.9 159.7,380.9 159.9,381.7 160.2,382.6 160.4,383.4 160.6,384.2 160.9,385.0 161.1,385.7 161.3,386.5 161.5,387.2 161.8,388.0 162.0,388.9 162.2,389.7 162.4,390.6 162.5,391.5 162.7,392.4 162.9,393.3 163.0,394.1 163.2,395.0 163.3,395.7 163.4,396.5 163.5,397.3 163.6,398.0 163.7,398.8 163.8,399.5 163.9,400.3 164.1,401.2 164.2,402.1 164.4,403.0 164.6,403.9 164.8,404.8 165.0,405.7 165.3,406.5 165.5,407.3 165.7,408.1 165.9,408.8 166.1,409.6 166.3,410.3 166.5,411.1 166.6,411.9 166.8,412.7 167.0,413.6 167.2,414.4 167.4,415.3 167.5,416.3 167.7,417.1 167.8,418.0 167.9,418.8 168.0,419.6 168.1,420.4 168.2,421.1 168.3,421.9 168.4,422.7 168.5,423.5 168.6,424.3 168.8,425.2 168.9,426.1 169.1,427.0 169.3,427.9 169.5,428.8 169.7,429.6 169.9,430.5 170.1,431.3 170.3,432.0 170.5,432.8 170.7,433.5 170.9,434.2 171.1,435.0 171.3,435.8 171.4,436.6 171.6,437.5 171.8,438.4 172.0,439.3 172.1,440.2 172.2,441.1 172.4,441.9 172.5,442.8 172.6,443.5 172.7,444.3 172.7,445.1 172.8,445.8 172.9,446.6 173.1,447.4 173.2,448.3 173.3,449.1 173.5,450.0 173.7,450.9 173.9,451.9 174.1,452.8 174.3,453.6 174.5,454.4 174.7,455.2 174.9,456.0 175.1,456.7 175.3,457.4 175.5,458.2 175.6,459.0 175.8,459.8 176.0,460.6 176.2,461.5 176.4,462.4 176.5,463.3 176.7,464.2 176.8,465.1 176.9,465.9 177.0,466.7 177.1,467.5 177.2,468.3 177.3,469.0 177.4,469.8 177.5,470.6 177.6,471.4 177.7,472.2 177.9,473.1 178.1,474.0 178.2,474.9 178.4,475.8 178.6,476.7 178.8,477.6 179.0,478.4 179.2,479.2 179.4,479.9 179.6,480.7 179.8,481.4 180.0,482.1 180.2,482.9 180.4,483.7 180.6,484.6 180.7,485.4 180.9,486.3 181.1,487.3 181.2,488.1 181.3,489.0 181.4,489.9 181.5,490.7 181.6,491.4 181.7,492.2 181.8,493.0 181.9,493.7 182.0,494.5 182.1,495.3 182.3,496.2 182.4,497.1 182.6,498.0 182.8,498.9 183.0,499.8 183.2,500.7 183.4,501.5 183.6,502.3 183.8,503.1 184.0,503.9 184.2,504.6 184.4,505.3 184.6,506.1 184.7,506.9 184.9,507.7 185.1,508.5 185.3,509.4 185.4,510.3 185.6,511.2 185.7,512.1 185.9,513.0 186.0,513.8 186.1,514.6 186.2,515.4 186.3,516.2 186.4,516.9 186.4,517.4 186.4,517.6 186.5,517.9 186.5,518.1 186.6,518.3 186.6,518.5 186.6,518.7 186.7,518.8 186.7,518.9 186.8,519.0 186.8,519.0 186.8,518.9 186.9,518.9 186.9,518.9 187.0,518.8 187.0,518.6 187.1,518.5 187.1,518.3 187.1,518.2 187.1,518.0 187.1,517.9 187.1,517.8 187.2,517.8 187.2,517.8 187.3,518.0 187.4,518.3 187.4,518.7 187.5,519.1 187.7,519.6 187.8,520.1 187.9,520.6 188.1,521.0 188.2,521.5 188.4,522.0 188.5,522.4 188.7,522.8 188.8,523.1 188.9,523.3 189.0,523.5 189.1,523.5 189.2,523.6 189.2,523.6 189.3,523.5 189.3,523.4 189.4,523.3 189.4,523.2 189.4,523.1 189.5,523.0 189.6,523.1 189.7,523.1 189.9,523.3 190.0,523.6 190.3,523.9 190.5,524.4 190.8,524.9 191.0,525.5 191.3,526.0 191.6,526.6 191.9,527.2 192.2,527.9 192.6,528.5 193.0,529.1 193.4,529.7 193.8,530.3 194.2,530.9 194.5,531.3 194.9,531.7 195.2,532.0 195.4,532.2 195.7,532.4 195.9,532.5 196.1,532.6 196.4,532.7 196.6,532.8 196.8,532.8" fill="none" stroke="#4ea1ff" stroke-width="2.5"/>
<circle cx="82.1" cy="294.0" r="6" fill="#39d98a"/>
<text x="24.0" y="580.0" fill="#c8d2e0" font-family="monospace" font-size="14">θ=-90° → right 未到達</text>
</svg>
