<svg xmlns="http://www.w3.org/2000/svg" width="598.8" height="588.0" viewBox="0 0 598.8 588.0">
<rect x="0" y="0" width="598.8" height="588.0" fill="#0e1118"/>
<rect x="24.0" y="24.0" width="550.8" height="540.0" fill="#161b26" stroke="#2a3344"/>
<rect x="19.5" y="19.5" width="9.0" height="549.0" fill="#3a4659"/>
<rect x="574.8" y="19.5" width="9.0" height="549.0" fill="#3a4659"/>
<rect x="19.5" y="15.0" width="559.8" height="9.0" fill="#3a4659"/>
<rect x="19.5" y="564.0" width="559.8" height="9.0" fill="#3a4659"/>
<line x1="82.1" y1="294.0" x2="352.1" y2="564.0" stroke="#5b6b86" stroke-dasharray="6 5"/>
<circle cx="352.1" cy="564.0" r="10" fill="none" stroke="#e0556b" stroke-width="3"/>
<polyline points="82.0,294.2 82.0,294.9 82.0,295.7 82.1,296.7 82.2,297.9 82.5,298.8 83.0,298.9 83.8,298.8 84.6,298.7 85.5,298.6 86.3,298.5 87.1,298.4 88.0,298.3 88.8,298.2 89.7,298.1 90.6,298.1 91.5,298.0 92.4,297.9 93.3,297.7 94.2,297.7 95.1,297.7 96.1,297.7 97.0,297.8 97.9,297.9 98.9,297.9 99.8,298.1 100.7,298.2 101.6,298.4 102.5,298.6 103.4,298.9 104.3,299.1 105.3,299.3 106.3,299.4 107.3,299.5 108.3,299.5 109.2,299.5 110.2,299.5 111.1,299.5 111.9,299.5 112.8,299.4 113.6,299.4 114.5,299.4 115.3,299.4 116.2,299.4 117.0,299.4 117.9,299.4 118.8,299.2 119.6,299.2 120.5,299.2 121.4,299.3 122.3,299.5 123.2,299.6 124.2,299.8 125.1,300.0 126.0,300.2 126.8,300.5 127.7,300.8 128.5,301.1 129.3,301.4 130.2,301.7 131.1,302.0 132.1,302.2 133.2,302.4 134.2,302.6 135.1,302.7 136.0,302.7 136.9,302.8 137.8,302.9 138.6,303.0 139.5,303.0 140.3,303.1 141.1,303.2 142.0,303.3 142.8,303.4 143.7,303.4 144.5,303.3 145.4,303.4 146.3,303.5 147.1,303.7 148.0,304.0 148.9,304.2 149.8,304.5 150.7,304.8 151.6,305.1 152.4,305.5 153.2,305.9 153.9,306.3 154.7,306.7 155.6,307.1 156.5,307.4 157.5,307.8 158.5,308.1 159.5,308.3 160.4,308.5 161.3,308.7 162.2,308.9 163.0,309.0 163.8,309.2 164.7,309.3 165.5,309.5 166.3,309.6 167.1,309.8 168.0,310.0 168.8,310.0 169.7,310.1 170.5,310.2 171.4,310.5 172.2,310.8 173.1,311.1 174.0,311.5 174.8,311.8 175.7,312.2 176.5,312.7 177.3,313.1 178.0,313.6 178.7,314.1 179.4,314.6 180.2,315.0 181.1,315.5 182.1,315.9 183.1,316.3 184.0,316.6 184.9,316.9 185.8,317.2 186.6,317.4 187.4,317.7 188.2,317.9 189.0,318.1 189.8,318.4 190.6,318.6 191.4,318.9 192.3,319.1 193.1,319.2 193.9,319.3 194.7,319.6 195.6,319.9 196.4,320.3 197.2,320.8 198.1,321.2 198.9,321.6 199.7,322.1 200.4,322.6 201.1,323.2 201.8,323.7 202.4,324.3 203.1,324.8 203.9,325.4 204.8,325.9 205.7,326.4 206.6,326.9 207.5,327.3 208.4,327.7 209.2,328.0 210.0,328.3 210.8,328.7 211.6,329.0 212.4,329.3 213.1,329.6 213.9,329.9 214.7,330.2 215.5,330.5 216.3,330.7 217.1,331.0 217.9,331.3 218.7,331.8 219.5,332.3 220.3,332.8 221.1,333.3 221.9,333.8 222.6,334.4 223.3,335.0 223.9,335.6 224.5,336.2 225.1,336.8 225.8,337.4 226.5,338.0 227.4,338.6 228.2,339.2 229.1,339.7 230.0,340.2 230.8,340.7 231.6,341.1 232.4,341.5 233.1,341.9 233.8,342.2 234.6,342.6 235.3,343.0 236.1,343.4 236.8,343.8 237.6,344.1 238.4,344.4 239.2,344.8 239.9,345.2 240.7,345.8 241.4,346.3 242.2,346.9 242.9,347.5 243.6,348.1 244.3,348.7 244.9,349.3 245.5,350.0 246.0,350.7 246.6,351.3 247.2,352.0 247.9,352.7 248.7,353.4 249.5,354.0 250.3,354.6 251.1,355.1 251.9,355.6 252.6,356.1 253.4,356.6 254.1,357.0 254.8,357.4 255.5,357.9 256.2,358.3 256.9,358.8 257.6,359.2 258.4,359.7 259.2,360.0 259.9,360.4 260.6,361.0 261.3,361.6 262.0,362.2 262.7,362.9 263.4,363.5 264.1,364.2 264.7,364.8 265.2,365.5 265.7,366.3 266.2,367.0 266.7,367.7 267.3,368.4 268.0,369.1 268.7,369.8 269.5,370.5 270.2,371.1 270.9,371.7 271.7,372.3 272.4,372.8 273.1,373.3 273.7,373.8 274.4,374.3 275.1,374.8 275.7,375.3 276.4,375.9 277.1,376.4 277.8,376.9 278.6,377.3 279.3,377.9 279.9,378.5 280.6,379.2 281.2,379.9 281.9,380.6 282.5,381.3 283.1,382.0 283.7,382.7 284.2,383.5 284.6,384.2 285.0,384.9 285.5,385.7 286.0,386.5 286.6,387.2 287.3,388.0 288.0,388.7 288.7,389.3 289.4,390.0 290.1,390.6 290.8,391.2 291.4,391.7 292.0,392.3 292.7,392.8 293.3,393.4 293.9,393.9 294.6,394.5 295.2,395.1 295.9,395.7 296.6,396.3 297.2,396.9 297.9,397.6 298.5,398.3 299.1,399.1 299.7,399.8 300.2,400.6 300.8,401.3 301.3,402.1 301.7,402.9 302.1,403.7 302.5,404.4 302.9,405.2 303.4,406.0 304.0,406.7 304.6,407.5 305.3,408.2 305.9,408.9 306.6,409.6 307.2,410.3 307.8,410.9 308.4,411.5 309.0,412.1 309.6,412.7 310.2,413.3 310.8,413.9 311.4,414.5 312.0,415.2 312.6,415.9 313.3,416.5 313.9,417.3 314.4,418.0 315.0,418.8 315.6,419.6 316.1,420.4 316.6,421.2 317.1,422.0 317.5,422.8 317.9,423.6 318.3,424.4 318.6,425.2 319.0,426.0 319.5,426.8 320.1,427.5 320.7,428.3 321.3,429.1 321.9,429.8 322.5,430.5 323.1,431.2 323.7,431.9 324.2,432.5 324.8,433.1 325.3,433.8 325.9,434.4 326.5,435.0 327.0,435.7 327.6,436.4 328.2,437.2 328.7,438.0 329.3,438.8 329.8,439.6 330.3,440.4 330.9,441.2 331.3,442.1 331.8,442.9 332.3,443.7 332.6,444.5 333.0,445.4 333.3,446.2 333.6,447.0 334.0,447.8 334.5,448.6 335.0,449.4 335.6,450.2 336.1,451.0 336.7,451.8 337.3,452.5 337.8,453.2 338.4,453.9 338.9,454.6 339.4,455.2 340.0,455.9 340.5,456.6 341.0,457.3 341.6,458.0 342.1,458.7 342.6,459.5 343.1,460.3 343.6,461.2 344.1,462.0 344.6,462.9 345.1,463.7 345.5,464.6 346.0,465.4 346.4,466.2 346.7,467.1 347.0,467.9 347.3,468.8 347.6,469.6 348.0,470.5 348.5,471.3 349.0,472.1 349.5,472.9 350.0,473.7 350.6,474.5 351.1,475.3 351.6,476.0 352.1,476.7 352.6,477.4 353.1,478.1 353.6,478.8 354.1,479.5 354.6,480.2 355.1,480.9 355.6,481.7 356.1,482.5 356.6,483.4 357.1,484.2 357.5,485.1 358.0,486.0 358.4,486.9 358.8,487.7 359.2,488.6 359.5,489.4 359.8,490.3 360.1,491.2 360.4,492.0 360.8,492.9 361.2,493.8 361.6,494.6 362.1,495.5 362.5,496.3 363.0,497.1 363.5,497.9 364.1,498.7 364.5,499.5 365.0,500.2 365.5,500.9 366.0,501.6 366.4,502.3 366.9,503.0 367.4,503.8 367.9,504.5 368.3,505.3 368.8,506.2 369.2,507.1 369.7,507.9 370.1,508.8 370.5,509.7 370.7,510.2" fill="none" stroke="#4ea1ff" stroke-width="2.5"/>
<circle cx="82.1" cy="294.0" r="6" fill="#39d98a"/>
<text x="24.0" y="580.0" fill="#c8d2e0" font-family="monospace" font-size="14">θ=-45° → right 到達✓</text>
</svg>
