<svg xmlns="http://www.w3.org/2000/svg" width="598.8" height="588.0" viewBox="0 0 598.8 588.0">
<rect x="0" y="0" width="598.8" height="588.0" fill="#0e1118"/>
<rect x="24.0" y="24.0" width="550.8" height="540.0" fill="#161b26" stroke="#2a3344"/>
<rect x="19.5" y="19.5" width="9.0" height="549.0" fill="#3a4659"/>
<rect x="574.8" y="19.5" width="9.0" height="549.0" fill="#3a4659"/>
<rect x="19.5" y="15.0" width="559.8" height="9.0" fill="#3a4659"/>
<rect x="19.5" y="564.0" width="559.8" height="9.0" fill="#3a4659"/>
<line x1="82.1" y1="294.0" x2="352.1" y2="24.0" stroke="#5b6b86" stroke-dasharray="6 5"/>
<circle cx="352.1" cy="24.0" r="10" fill="none" stroke="#e0556b" stroke-width="3"/>
<polyline points="82.0,294.1 82.1,294.9 82.4,295.9 82.8,296.3 83.1,296.3 83.4,296.1 84.0,296.1 84.8,296.1 85.6,296.0 86.4,295.9 87.3,295.7 88.2,295.5 89.1,295.3 90.1,295.0 91.0,294.7 91.9,294.5 92.7,294.3 93.5,294.1 94.2,294.1 94.9,294.1 95.5,294.2 96.2,294.2 97.0,294.3 97.8,294.4 98.5,294.4 99.3,294.4 100.0,294.4 100.7,294.3 101.3,294.2 102.1,294.1 102.9,294.0 103.8,294.0 104.8,293.9 105.8,293.8 106.7,293.7 107.5,293.6 108.1,293.8 108.7,294.0 109.4,294.0 110.0,293.9 110.8,293.5 111.5,293.1 112.3,292.6 113.1,292.1 113.9,291.6 114.7,291.2 115.4,290.8 116.1,290.6 116.8,290.5 117.4,290.4 118.2,290.2 118.9,290.1 119.7,289.9 120.4,289.7 121.2,289.4 121.9,289.2 122.5,288.9 123.1,288.6 123.9,288.4 124.6,288.0 125.5,287.6 126.5,287.2 127.3,286.8 128.1,286.4 128.8,286.2 129.5,286.2 130.1,286.2 130.8,286.1 131.4,285.7 132.0,285.1 132.6,284.5 133.2,283.8 133.8,283.0 134.4,282.4 135.0,281.8 135.7,281.3 136.3,281.0 137.0,280.7 137.6,280.4 138.3,280.0 139.0,279.6 139.6,279.2 140.2,278.8 140.8,278.4 141.4,278.1 142.0,277.7 142.6,277.2 143.3,276.8 143.9,276.3 144.6,275.7 145.3,275.1 146.0,274.5 146.6,273.9 147.3,273.3 147.9,272.7 148.6,272.4 149.1,272.0 149.5,271.6 150.0,271.1 150.5,270.6 151.0,269.9 151.5,269.2 152.0,268.6 152.6,267.9 153.2,267.2 153.8,266.6 154.4,265.9 155.0,265.2 155.6,264.5 156.2,263.9 156.8,263.3 157.3,262.6 157.9,262.0 158.4,261.4 159.0,260.8 159.6,260.2 160.1,259.5 160.7,258.8 161.3,258.1 161.8,257.3 162.4,256.6 162.9,255.8 163.4,255.1 163.9,254.5 164.3,253.8 164.7,253.2 165.1,252.6 165.5,252.1 165.8,251.5 166.2,250.9 166.7,250.3 167.1,249.7 167.6,249.0 168.2,248.4 168.7,247.7 169.3,247.0 169.9,246.3 170.5,245.6 171.1,245.0 171.7,244.3 172.4,243.7 172.9,243.0 173.5,242.4 174.1,241.8 174.7,241.2 175.3,240.6 175.9,239.9 176.5,239.3 177.2,238.6 177.8,237.9 178.4,237.2 178.9,236.5 179.5,235.9 180.0,235.2 180.5,234.6 181.0,234.0 181.5,233.4 182.0,232.9 182.5,232.3 183.1,231.7 183.6,231.1 184.2,230.5 184.9,229.8 185.5,229.2 186.2,228.6 186.9,228.0 187.5,227.4 188.1,226.9 188.8,226.4 189.4,225.9 190.0,225.4 190.6,224.9 191.2,224.5 191.8,224.0 192.4,223.4 193.1,222.9 193.7,222.3 194.4,221.7 195.1,221.0 195.8,220.4 196.5,219.8 197.1,219.2 197.7,218.5 198.3,218.0 198.9,217.4 199.5,216.8 200.0,216.2 200.6,215.6 201.2,215.0 201.9,214.4 202.5,213.8 203.2,213.2 203.9,212.6 204.6,212.0 205.3,211.4 206.0,210.9 206.6,210.4 207.2,209.9 207.8,209.4 208.4,208.9 209.0,208.5 209.6,208.0 210.2,207.5 210.8,206.9 211.4,206.3 212.1,205.7 212.8,205.1 213.4,204.4 214.1,203.8 214.7,203.1 215.3,202.5 215.9,201.9 216.4,201.3 217.0,200.7 217.5,200.1 218.0,199.5 218.5,198.9 219.1,198.3 219.7,197.6 220.3,197.0 221.0,196.3 221.6,195.7 222.3,195.1 222.9,194.4 223.6,193.8 224.2,193.3 224.8,192.7 225.4,192.2 226.0,191.6 226.6,191.1 227.2,190.6 227.8,190.0 228.4,189.4 229.0,188.7 229.6,188.1 230.3,187.4 230.9,186.7 231.5,186.0 232.1,185.3 232.6,184.7 233.1,184.1 233.6,183.5 234.1,182.9 234.6,182.3 235.1,181.7 235.6,181.1 236.1,180.5 236.7,179.9 237.3,179.2 237.9,178.6 238.6,177.9 239.2,177.3 239.8,176.7 240.5,176.1 241.1,175.5 241.7,174.9 242.3,174.4 242.9,173.9 243.5,173.3 244.1,172.8 244.7,172.2 245.3,171.6 245.9,170.9 246.6,170.3 247.2,169.6 247.9,168.9 248.5,168.3 249.1,167.6 249.6,167.0 250.1,166.4 250.7,165.8 251.2,165.2 251.7,164.6 252.2,164.0 252.7,163.4 253.3,162.8 253.9,162.2 254.5,161.5 255.2,160.9 255.8,160.3 256.5,159.7 257.1,159.1 257.8,158.5 258.4,158.0 259.0,157.4 259.6,156.9 260.2,156.4 260.8,155.9 261.4,155.4 262.0,154.8 262.6,154.2 263.3,153.6 264.0,153.0 264.6,152.3 265.3,151.6 265.9,151.0 266.5,150.4 267.1,149.7 267.6,149.1 268.2,148.5 268.7,148.0 269.2,147.4 269.7,146.8 270.3,146.2 270.9,145.6 271.5,144.9 272.2,144.3 272.8,143.7 273.5,143.0 274.2,142.4 274.8,141.8 275.5,141.3 276.1,140.8 276.7,140.2 277.3,139.7 277.9,139.2 278.5,138.7 279.1,138.2 279.7,137.6 280.3,137.0 281.0,136.4 281.6,135.7 282.3,135.1 282.9,134.4 283.5,133.8 284.1,133.1 284.7,132.5 285.2,131.9 285.7,131.3 286.2,130.7 286.8,130.1 287.3,129.5 287.9,128.9 288.4,128.3 289.1,127.7 289.7,127.0 290.3,126.4 291.0,125.8 291.7,125.1 292.3,124.5 292.9,124.0 293.5,123.4 294.1,122.9 294.7,122.4 295.3,121.9 295.9,121.3 296.5,120.8 297.1,120.2 297.8,119.6 298.4,118.9 299.1,118.3 299.7,117.6 300.3,116.9 300.9,116.3 301.5,115.6 302.1,115.0 302.6,114.4 303.1,113.8 303.6,113.2 304.1,112.6 304.6,112.1 305.2,111.4 305.8,110.8 306.4,110.2 307.0,109.5 307.7,108.9 308.3,108.3 309.0,107.6 309.6,107.1 310.2,106.5 310.8,105.9 311.4,105.4 312.0,104.9 312.6,104.4 313.2,103.8 313.8,103.3 314.5,102.7 315.1,102.1 315.7,101.4 316.4,100.8 317.0,100.1 317.7,99.4 318.3,98.8 318.8,98.1 319.4,97.5 319.9,96.9 320.4,96.3 320.9,95.7 321.4,95.2 322.0,94.6 322.5,94.0 323.1,93.3 323.7,92.7 324.4,92.0 325.1,91.4 325.7,90.8 326.4,90.2 327.0,89.6 327.6,89.1 328.2,88.5 328.8,88.0 329.4,87.5 330.0,87.0 330.6,86.4 331.2,85.9 331.9,85.3 332.5,84.7 333.2,84.0 333.8,83.4 334.5,82.7 335.1,82.0 335.7,81.4 336.2,80.8 336.8,80.1 337.3,79.6 337.8,79.0 338.3,78.4 338.9,77.8 339.4,77.2 340.0,76.6 340.6,76.0 341.2,75.3 341.9,74.7 342.5,74.0 343.2,73.4 343.9,72.8 344.5,72.3 345.1,71.7 345.7,71.2 346.3,70.7 346.9,70.2 347.5,69.6 348.1,69.1 348.7,68.5 349.3,67.9 350.0,67.3 350.6,66.7 351.3,66.0 351.9,65.3 352.6,64.7 353.1,64.0 353.7,63.4 354.2,62.8 354.8,62.2 355.3,61.6 355.8,61.0 356.3,60.4 356.9,59.8 357.4,59.2 358.0,58.6 358.7,57.9 359.3,57.3 360.0,56.7 360.7,56.0 361.3,55.5 361.8,55.2 362.1,54.9 362.5,54.8 362.8,54.7 363.1,54.6 363.3,54.5 363.6,54.5 363.9,54.5 364.1,54.4 364.4,54.4 364.7,54.4 365.2,54.4 365.6,54.5 366.0,54.4 366.4,54.2 366.7,53.9 367.0,53.9 367.3,54.0 367.5,54.2 367.6,54.4 367.5,54.4 367.1,54.0 367.0,53.7 366.9,53.4 366.8,53.1 366.6,52.6 366.5,52.1 366.7,51.9 367.2,52.1 367.7,51.9 368.1,51.9 368.3,51.9 368.6,51.9 368.9,51.9 369.2,51.9 369.5,51.9 369.7,52.0 370.0,52.0 370.3,52.0 370.7,52.0 371.1,51.9 371.6,51.8 372.0,51.7 372.4,51.6 372.9,51.4 373.5,51.1 374.0,50.8 374.6,50.3 375.1,49.7 375.5,49.0 375.9,48.4 376.3,47.7 376.6,47.3 377.1,47.0 377.6,46.8 378.2,46.7 378.8,46.6 379.5,46.5 380.1,46.5 380.7,46.5 381.2,46.5 381.6,46.5 382.0,46.6 382.3,46.7 382.6,46.8 382.8,46.9 383.1,47.0 383.5,47.0 383.9,47.0 384.4,47.1 384.7,47.3 385.2,47.5 385.8,47.6 386.5,47.4 387.2,47.0 387.9,46.7 388.7,46.2 389.4,45.6 390.0,45.0 390.6,44.4 391.1,43.8 391.6,43.4 392.2,43.2 392.7,43.1 393.3,43.1 394.0,43.1 394.7,43.1 395.3,43.1 395.9,43.1 396.5,43.2 397.1,43.4 397.8,43.5 398.5,43.6 398.9,43.7 399.2,43.8 399.5,43.9 399.9,44.0 400.4,44.0 400.8,44.1 401.2,44.4 401.7,44.6 402.4,44.7 403.1,44.5 403.9,44.2 404.8,43.8 405.6,43.4 406.4,42.8 407.1,42.3 407.7,41.8 408.4,41.3 408.9,41.0 409.5,40.9 410.1,40.8 410.8,40.8 411.5,40.8 412.2,40.9 412.9,40.9 413.5,41.0 414.1,41.1 414.8,41.3 415.5,41.5 416.2,41.6 416.6,41.7 416.9,41.8 417.3,41.9 417.7,42.0 418.2,42.0 418.7,42.1 419.1,42.4 419.7,42.7 420.3,42.7 421.1,42.6 421.9,42.2 422.8,41.9 423.7,41.4 424.5,40.9 425.2,40.4 425.9,40.0 426.6,39.6 427.2,39.4 427.8,39.3 428.4,39.3 429.1,39.2 429.8,39.3 430.5,39.4 431.3,39.5 432.0,39.6 432.6,39.8 433.3,40.0 434.0,40.1 434.7,40.2 435.1,40.3 435.4,40.5 435.8,40.5 436.3,40.6 436.8,40.7 437.3,40.9 437.7,41.2 438.3,41.4 439.0,41.4 439.8,41.2 440.7,40.9 441.6,40.6 442.5,40.1 443.3,39.6 444.0,39.2 444.7,38.8 445.4,38.4 446.0,38.3 446.6,38.2 447.2,38.2 447.9,38.2 448.6,38.2 449.4,38.4 450.1,38.5 450.8,38.6 451.5,38.8 452.2,39.0 452.9,39.2 453.5,39.3 453.8,39.4 454.2,39.5 454.6,39.6 455.1,39.7 455.7,39.8 456.2,40.0 456.6,40.3 457.3,40.5 458.0,40.5 458.8,40.3 459.7,40.0 460.6,39.7 461.5,39.2 462.3,38.7 463.1,38.3" fill="none" stroke="#4ea1ff" stroke-width="2.5"/>
<circle cx="82.1" cy="294.0" r="6" fill="#39d98a"/>
<text x="24.0" y="580.0" fill="#c8d2e0" font-family="monospace" font-size="14">θ=45° → left 未到達</text>
</svg>
