<svg xmlns="http://www.w3.org/2000/svg" width="598.8" height="588.0" viewBox="0 0 598.8 588.0">
<rect x="0" y="0" width="598.8" height="588.0" fill="#0e1118"/>
<rect x="24.0" y="24.0" width="550.8" height="540.0" fill="#161b26" stroke="#2a3344"/>
<rect x="19.5" y="19.5" width="9.0" height="549.0" fill="#3a4659"/>
<rect x="574.8" y="19.5" width="9.0" height="549.0" fill="#3a4659"/>
<rect x="19.5" y="15.0" width="559.8" height="9.0" fill="#3a4659"/>
<rect x="19.5" y="564.0" width="559.8" height="9.0" fill="#3a4659"/>
<line x1="82.1" y1="294.0" x2="82.1" y2="24.0" stroke="#5b6b86" stroke-dasharray="6 5"/>
<circle cx="82.1" cy="24.0" r="10" fill="none" stroke="#e0556b" stroke-width="3"/>
<polyline points="82.0,294.2 82.1,294.9 82.2,295.9 82.4,296.8 82.6,297.8 83.0,298.3 83.7,298.3 84.4,298.2 85.3,298.2 86.2,298.1 87.1,298.0 88.1,297.9 89.0,297.8 90.0,297.7 90.9,297.7 91.9,297.6 93.0,297.6 94.0,297.6 95.0,297.6 96.0,297.6 97.0,297.6 98.0,297.6 98.9,297.7 99.8,297.7 100.6,297.8 101.5,297.8 102.3,297.9 103.2,298.0 104.1,298.0 105.0,298.0 106.0,298.1 106.9,298.1 107.9,298.1 108.9,298.0 109.9,298.0 110.9,297.9 111.8,297.9 112.7,297.8 113.6,297.7 114.5,297.6 115.4,297.5 116.3,297.4 117.2,297.3 118.2,297.2 119.1,297.1 120.1,297.0 121.1,297.0 122.2,297.0 123.2,296.9 124.1,296.9 125.1,296.9 126.0,296.9 126.9,297.0 127.8,297.0 128.6,297.0 129.5,297.1 130.3,297.1 131.2,297.1 132.2,297.1 133.1,297.1 134.1,297.1 135.1,297.0 136.1,296.9 137.1,296.8 138.0,296.7 139.0,296.6 139.9,296.5 140.8,296.4 141.7,296.3 142.5,296.1 143.4,296.0 144.3,295.8 145.3,295.7 146.2,295.6 147.2,295.5 148.2,295.4 149.3,295.3 150.2,295.3 151.2,295.2 152.2,295.2 153.1,295.2 154.0,295.1 154.8,295.1 155.7,295.1 156.5,295.1 157.4,295.1 158.3,295.1 159.3,295.1 160.2,295.0 161.2,294.9 162.2,294.8 163.2,294.7 164.1,294.6 165.1,294.4 166.0,294.3 166.9,294.1 167.8,294.0 168.7,293.8 169.6,293.6 170.5,293.4 171.4,293.2 172.3,293.1 173.3,292.9 174.3,292.8 175.3,292.7 176.3,292.5 177.2,292.4 178.2,292.4 179.1,292.3 180.0,292.2 180.9,292.2 181.8,292.1 182.6,292.1 183.5,292.0 184.4,292.0 185.3,291.9 186.2,291.8 187.2,291.7 188.2,291.6 189.2,291.5 190.1,291.3 191.1,291.1 192.0,290.9 192.9,290.8 193.8,290.6 194.7,290.4 195.6,290.1 196.4,289.9 197.3,289.7 198.2,289.5 199.2,289.3 200.1,289.1 201.1,288.9 202.1,288.7 203.1,288.6 204.1,288.4 205.0,288.3 206.0,288.2 206.8,288.1 207.7,288.0 208.6,287.9 209.4,287.8 210.3,287.8 211.2,287.7 212.1,287.6 213.0,287.4 214.0,287.3 215.0,287.1 215.9,286.9 216.9,286.7 217.8,286.5 218.8,286.2 219.7,286.0 220.5,285.8 221.4,285.5 222.3,285.3 223.1,285.0 224.0,284.7 224.9,284.5 225.8,284.2 226.8,284.0 227.7,283.8 228.7,283.6 229.7,283.4 230.7,283.2 231.6,283.0 232.5,282.9 233.4,282.7 234.3,282.6 235.1,282.5 236.0,282.3 236.9,282.2 237.7,282.1 238.6,281.9 239.6,281.7 240.5,281.5 241.5,281.3 242.5,281.1 243.4,280.8 244.3,280.5 245.2,280.3 246.1,280.0 247.0,279.7 247.8,279.4 248.7,279.1 249.5,278.8 250.4,278.5 251.2,278.2 252.2,277.9 253.1,277.6 254.1,277.4 255.1,277.1 256.0,276.9 257.0,276.7 257.9,276.4 258.8,276.2 259.7,276.1 260.5,275.9 261.4,275.7 262.2,275.6 263.1,275.4 264.0,275.2 264.9,275.0 265.8,274.8 266.7,274.5 267.7,274.2 268.6,273.9 269.6,273.6 270.5,273.3 271.3,273.0 272.2,272.7 273.0,272.4 273.9,272.0 274.7,271.7 275.5,271.3 276.4,271.0 277.2,270.6 278.2,270.3 279.1,270.0 280.1,269.7 281.0,269.4 282.0,269.1 282.9,268.8 283.8,268.6 284.7,268.3 285.6,268.1 286.4,267.9 287.2,267.7 288.1,267.5 288.9,267.2 289.8,267.0 290.7,266.7 291.6,266.5 292.5,266.2 293.5,265.8 294.4,265.5 295.3,265.1 296.2,264.7 297.0,264.4 297.9,264.0 298.7,263.6 299.5,263.3 300.3,262.9 301.1,262.5 301.9,262.1 302.8,261.7 303.7,261.3 304.6,261.0 305.6,260.6 306.5,260.2 307.4,259.9 308.3,259.6 309.2,259.3 310.1,259.0 310.9,258.7 311.8,258.5 312.6,258.2 313.4,258.0 314.3,257.7 315.1,257.4 316.0,257.1 316.9,256.8 317.8,256.4 318.7,256.0 319.6,255.6 320.5,255.2 321.3,254.8 322.2,254.4 323.0,254.0 323.8,253.5 324.5,253.1 325.3,252.7 326.1,252.3 326.9,251.8 327.8,251.4 328.6,251.0 329.6,250.5 330.5,250.1 331.4,249.7 332.3,249.3 333.2,249.0 334.1,248.6 334.9,248.3 335.7,248.0 336.5,247.7 337.3,247.4 338.1,247.1 339.0,246.8 339.8,246.4 340.7,246.1 341.6,245.7 342.5,245.2 343.3,244.8 344.2,244.3 345.0,243.9 345.8,243.4 346.7,242.9 347.4,242.5 348.2,242.0 348.9,241.6 349.7,241.1 350.5,240.6 351.2,240.1 352.1,239.6 352.9,239.2 353.8,238.7 354.7,238.2 355.6,237.8 356.5,237.3 357.3,236.9 358.2,236.5 359.0,236.2 359.8,235.8 360.6,235.5 361.4,235.1 362.2,234.8 363.0,234.4 363.8,234.0 364.6,233.6 365.5,233.1 366.4,232.6 367.2,232.1 368.0,231.6 368.8,231.1 369.6,230.6 370.4,230.1 371.1,229.6 371.8,229.1 372.6,228.6 373.3,228.1 374.0,227.5 374.8,227.0 375.6,226.5 376.4,225.9 377.3,225.4 378.1,224.9 379.0,224.4 379.9,223.9 380.7,223.5 381.5,223.0 382.3,222.6 383.1,222.2 383.8,221.8 384.6,221.4 385.4,221.0 386.1,220.6 386.9,220.1 387.8,219.6 388.6,219.1 389.4,218.6 390.2,218.0 391.0,217.5 391.8,216.9 392.5,216.3 393.2,215.8 393.9,215.3 394.6,214.7 395.3,214.2 396.0,213.6 396.7,213.0 397.4,212.4 398.2,211.9 399.0,211.3 399.8,210.7 400.7,210.1 401.5,209.6 402.3,209.1 403.1,208.5 403.9,208.1 404.6,207.6 405.4,207.1 406.1,206.7 406.9,206.3 407.6,205.8 408.4,205.3 409.1,204.8 409.9,204.3 410.7,203.7 411.5,203.1 412.2,202.5 413.0,201.9 413.7,201.3 414.4,200.7 415.1,200.1 415.8,199.5 416.4,198.9 417.1,198.3 417.7,197.7 418.4,197.1 419.1,196.5 419.8,195.8 420.6,195.2 421.4,194.6 422.2,194.0 423.0,193.4 423.7,192.8 424.5,192.2 425.2,191.7 426.0,191.2 426.7,190.7 427.4,190.2 428.1,189.7 428.8,189.2 429.5,188.7 430.2,188.1 431.0,187.5 431.7,186.9 432.5,186.3 433.2,185.6 433.9,185.0 434.6,184.3 435.2,183.6 435.9,183.0 436.5,182.4 437.1,181.7 437.7,181.1 438.3,180.4 438.9,179.8 439.6,179.1 440.3,178.4 441.0,177.8 441.8,177.1 442.5,176.4 443.3,175.8 444.0,175.1 444.7,174.5 445.4,174.0 446.1,173.4 446.8,172.9 447.4,172.3 448.1,171.8 448.8,171.2 449.5,170.7 450.2,170.0 450.9,169.4 451.6,168.7 452.3,168.0 452.9,167.3 453.6,166.6 454.2,165.9 454.8,165.2 455.4,164.6 456.0,163.9 456.5,163.2 457.1,162.5 457.7,161.9 458.2,161.2 458.9,160.4 459.5,159.7 460.2,159.0 460.9,158.3 461.6,157.6 462.3,156.9 463.0,156.2 463.7,155.6 464.3,154.9 465.0,154.3 465.6,153.8 466.2,153.2 466.9,152.6 467.5,152.0 468.2,151.4 468.8,150.7 469.5,150.0 470.1,149.3 470.8,148.5 471.4,147.8 472.0,147.0 472.6,146.3 473.1,145.6 473.6,144.9 474.2,144.2 474.7,143.5 475.2,142.7 475.7,142.0 476.2,141.3 476.8,140.5 477.4,139.8 478.1,139.0 478.7,138.2 479.4,137.5 480.1,136.7 480.7,136.0 481.3,135.3 481.9,134.7 482.5,134.0 483.1,133.4 483.7,132.8 484.3,132.2 484.9,131.5 485.5,130.8 486.1,130.1 486.7,129.4 487.3,128.6 487.9,127.8 488.5,127.1 489.0,126.3 489.5,125.5 490.0,124.7 490.5,124.0 491.0,123.2 491.4,122.5 491.9,121.8 492.3,121.0 492.8,120.2 493.4,119.4 494.0,118.6 494.5,117.8 495.2,117.0 495.8,116.2 496.4,115.4 496.9,114.7 497.5,114.0 498.1,113.3 498.6,112.6 499.2,112.0 499.7,111.3 500.3,110.6 500.8,109.9 501.4,109.2 501.9,108.4 502.5,107.6 503.1,106.8 503.6,106.0 504.1,105.2 504.5,104.4 505.0,103.6 505.5,102.8 505.9,102.0 506.3,101.2 506.7,100.5 507.1,99.7 507.5,98.9 508.0,98.1 508.5,97.3 509.0,96.4 509.5,95.6 510.1,94.7 510.6,93.9 511.2,93.1 511.7,92.3 512.2,91.6 512.8,90.8 513.3,90.1 513.8,89.4 514.3,88.8 514.8,88.0 515.3,87.3 515.8,86.5 516.3,85.7 516.8,84.9 517.3,84.0 517.8,83.2 518.2,82.3 518.6,81.5 519.0,80.6 519.4,79.8 519.8,79.0 520.1,78.3 520.3,77.9" fill="none" stroke="#4ea1ff" stroke-width="2.5"/>
<circle cx="82.1" cy="294.0" r="6" fill="#39d98a"/>
<text x="24.0" y="580.0" fill="#c8d2e0" font-family="monospace" font-size="14">θ=90° → left 到達✓</text>
</svg>
