<svg xmlns="http://www.w3.org/2000/svg" width="598.8" height="588.0" viewBox="0 0 598.8 588.0">
<rect x="0" y="0" width="598.8" height="588.0" fill="#0e1118"/>
<rect x="24.0" y="24.0" width="550.8" height="540.0" fill="#161b26" stroke="#2a3344"/>
<rect x="19.5" y="19.5" width="9.0" height="549.0" fill="#3a4659"/>
<rect x="574.8" y="19.5" width="9.0" height="549.0" fill="#3a4659"/>
<rect x="19.5" y="15.0" width="559.8" height="9.0" fill="#3a4659"/>
<rect x="19.5" y="564.0" width="559.8" height="9.0" fill="#3a4659"/>
<line x1="82.1" y1="294.0" x2="352.1" y2="24.0" stroke="#5b6b86" stroke-dasharray="6 5"/>
<circle cx="352.1" cy="24.0" r="10" fill="none" stroke="#e0556b" stroke-width="3"/>
<polyline points="82.0,294.2 82.0,294.9 82.1,295.8 82.3,296.8 82.4,297.8 82.9,298.4 83.5,298.3 84.3,298.3 85.1,298.2 86.0,298.1 86.9,298.0 87.8,297.9 88.7,297.9 89.6,297.8 90.6,297.7 91.6,297.7 92.6,297.6 93.6,297.6 94.6,297.6 95.6,297.6 96.6,297.6 97.6,297.7 98.5,297.7 99.4,297.8 100.3,297.8 101.2,297.9 102.1,298.0 103.0,298.1 103.9,298.1 104.8,298.2 105.8,298.2 106.8,298.2 107.7,298.2 108.7,298.2 109.7,298.2 110.7,298.1 111.6,298.0 112.5,297.9 113.4,297.9 114.3,297.8 115.2,297.7 116.1,297.6 117.0,297.5 117.9,297.4 118.8,297.3 119.8,297.3 120.8,297.3 121.8,297.2 122.8,297.2 123.8,297.2 124.8,297.3 125.7,297.3 126.6,297.3 127.5,297.4 128.4,297.4 129.2,297.5 130.1,297.5 131.1,297.6 132.0,297.6 133.0,297.6 134.0,297.6 135.0,297.6 136.0,297.5 136.9,297.5 137.9,297.4 138.8,297.3 139.7,297.2 140.6,297.1 141.5,297.0 142.4,296.8 143.2,296.7 144.1,296.6 145.0,296.5 146.0,296.4 147.0,296.4 148.0,296.3 149.0,296.3 150.0,296.2 151.0,296.2 151.9,296.2 152.8,296.2 153.8,296.2 154.6,296.2 155.5,296.3 156.4,296.3 157.3,296.3 158.2,296.4 159.2,296.4 160.2,296.4 161.2,296.3 162.2,296.3 163.1,296.2 164.1,296.1 165.1,296.0 166.0,295.8 166.9,295.7 167.8,295.6 168.6,295.4 169.5,295.3 170.4,295.2 171.3,295.0 172.2,294.9 173.1,294.8 174.1,294.7 175.1,294.6 176.1,294.6 177.1,294.5 178.1,294.5 179.1,294.5 180.0,294.4 180.9,294.4 181.8,294.4 182.7,294.5 183.5,294.5 184.5,294.5 185.4,294.5 186.3,294.4 187.3,294.4 188.3,294.3 189.3,294.3 190.3,294.1 191.2,294.0 192.2,293.9 193.1,293.7 194.0,293.6 194.9,293.4 195.7,293.3 196.6,293.1 197.5,293.0 198.4,292.8 199.3,292.7 200.2,292.5 201.2,292.4 202.2,292.3 203.2,292.2 204.2,292.2 205.2,292.1 206.1,292.1 207.1,292.0 207.9,292.0 208.8,292.0 209.7,292.0 210.6,292.0 211.5,292.0 212.5,291.9 213.4,291.9 214.4,291.8 215.4,291.7 216.4,291.6 217.4,291.5 218.3,291.3 219.2,291.1 220.2,291.0 221.0,290.8 221.9,290.6 222.8,290.5 223.6,290.3 224.5,290.1 225.4,289.9 226.3,289.8 227.3,289.6 228.3,289.5 229.3,289.4 230.3,289.3 231.2,289.2 232.2,289.1 233.1,289.0 234.1,289.0 235.0,288.9 235.8,288.9 236.7,288.9 237.6,288.9 238.5,288.8 239.5,288.8 240.5,288.7 241.4,288.6 242.4,288.5 243.4,288.3 244.4,288.2 245.3,288.0 246.2,287.8 247.1,287.6 248.0,287.4 248.9,287.2 249.7,287.0 250.6,286.9 251.4,286.7 252.3,286.5 253.3,286.3 254.2,286.1 255.2,286.0 256.2,285.8 257.2,285.7 258.2,285.6 259.2,285.5 260.1,285.4 261.0,285.4 261.9,285.3 262.8,285.3 263.7,285.2 264.6,285.2 265.5,285.1 266.4,285.0 267.4,284.9 268.4,284.8 269.4,284.7 270.3,284.5 271.3,284.3 272.2,284.1 273.2,283.9 274.0,283.7 274.9,283.5 275.7,283.3 276.6,283.1 277.5,282.9 278.3,282.6 279.2,282.4 280.2,282.2 281.1,282.1 282.1,281.9 283.1,281.7 284.1,281.6 285.1,281.5 286.0,281.4 286.9,281.3 287.8,281.2 288.7,281.1 289.6,281.0 290.5,281.0 291.4,280.9 292.3,280.8 293.3,280.7 294.3,280.6 295.2,280.5 296.2,280.3 297.2,280.1 298.1,279.9 299.1,279.7 300.0,279.4 300.8,279.2 301.7,279.0 302.5,278.8 303.4,278.6 304.2,278.3 305.1,278.1 306.0,277.9 307.0,277.7 307.9,277.5 308.9,277.3 309.9,277.1 310.9,277.0 311.9,276.8 312.8,276.7 313.7,276.6 314.6,276.5 315.5,276.4 316.4,276.3 317.3,276.2 318.2,276.1 319.1,276.0 320.1,275.9 321.0,275.8 322.0,275.6 323.0,275.4 323.9,275.2 324.9,275.0 325.8,274.7 326.7,274.5 327.6,274.2 328.4,274.0 329.3,273.8 330.1,273.5 330.9,273.3 331.8,273.0 332.7,272.8 333.7,272.6 334.6,272.4 335.6,272.2 336.6,272.0 337.6,271.8 338.5,271.7 339.5,271.5 340.4,271.4 341.3,271.3 342.2,271.2 343.1,271.1 343.9,271.0 344.9,270.9 345.8,270.7 346.7,270.6 347.7,270.4 348.7,270.3 349.6,270.0 350.6,269.8 351.5,269.6 352.4,269.3 353.3,269.0 354.2,268.8 355.0,268.5 355.9,268.3 356.7,268.0 357.6,267.8 358.4,267.5 359.3,267.2 360.3,267.0 361.3,266.8 362.2,266.6 363.2,266.4 364.2,266.2 365.1,266.0 366.1,265.9 367.0,265.7 367.9,265.6 368.7,265.5 369.6,265.4 370.5,265.3 371.4,265.1 372.4,265.0 373.3,264.8 374.3,264.6 375.3,264.4 376.2,264.2 377.2,263.9 378.1,263.7 379.0,263.4 379.9,263.1 380.7,262.8 381.5,262.6 382.4,262.3 383.2,262.0 384.1,261.8 384.9,261.5 385.8,261.2 386.8,261.0 387.8,260.7 388.7,260.5 389.7,260.3 390.7,260.1 391.6,259.9 392.6,259.7 393.5,259.6 394.3,259.5 395.2,259.3 396.1,259.2 397.0,259.1 397.9,258.9 398.8,258.8 399.8,258.6 400.8,258.4 401.7,258.1 402.7,257.9 403.6,257.6 404.5,257.3 405.4,257.0 406.3,256.7 407.1,256.5 408.0,256.2 408.8,255.9 409.6,255.6 410.5,255.3 411.3,255.0 412.2,254.8 413.2,254.5 414.2,254.2 415.1,254.0 416.1,253.8 417.1,253.6 418.0,253.4 418.9,253.2 419.8,253.0 420.7,252.9 421.6,252.7 422.5,252.6 423.3,252.5 424.3,252.3 425.2,252.1 426.2,251.9 427.1,251.7 428.1,251.4 429.0,251.1 429.9,250.9 430.9,250.6 431.7,250.2 432.6,249.9 433.4,249.7 434.2,249.4 435.1,249.1 435.9,248.8 436.7,248.5 437.6,248.2 438.5,247.9 439.5,247.6 440.5,247.3 441.4,247.1 442.4,246.8 443.3,246.6 444.3,246.4 445.2,246.2 446.1,246.0 446.9,245.9 447.8,245.7 448.7,245.6 449.6,245.4 450.5,245.2 451.5,245.0 452.4,244.8 453.4,244.6 454.3,244.3 455.3,244.0 456.2,243.7 457.1,243.4 458.0,243.1 458.8,242.7 459.6,242.4 460.4,242.1 461.3,241.8 462.1,241.5 462.9,241.2 463.8,240.9 464.7,240.6 465.7,240.3 466.6,240.0 467.6,239.8 468.6,239.5 469.5,239.3 470.4,239.1 471.3,238.9 472.2,238.7 473.1,238.5 474.0,238.3 474.8,238.2 475.7,238.0 476.7,237.8 477.6,237.6 478.5,237.3 479.5,237.1 480.4,236.8 481.4,236.5 482.3,236.1 483.2,235.8 484.0,235.5 484.9,235.2 485.7,234.8 486.5,234.5 487.3,234.2 488.1,233.9 489.0,233.5 489.9,233.2 490.8,232.9 491.7,232.6 492.7,232.3 493.7,232.0 494.6,231.8 495.6,231.5 496.5,231.3 497.4,231.1 498.3,230.9 499.1,230.7 500.0,230.5 500.9,230.4 501.8,230.2 502.7,230.0 503.6,229.7 504.6,229.5 505.5,229.2 506.5,228.9 507.4,228.5 508.3,228.2 509.2,227.9 510.0,227.5 510.8,227.2 511.7,226.9 512.5,226.5 513.3,226.2 514.1,225.8 515.0,225.5 515.8,225.2 516.8,224.9 517.7,224.5 518.7,224.2 519.6,224.0 520.6,223.7 521.5,223.4 522.4,223.2 523.3,223.0 524.2,222.8 525.0,222.6 525.9,222.4 526.8,222.2 527.7,222.0 528.6,221.8 529.5,221.5 530.5,221.2 531.4,220.9 531.9,220.7 532.3,220.5 532.7,220.3 533.0,220.0 533.2,219.8 533.3,219.7 533.4,219.6 533.4,219.5 533.4,219.4 533.4,219.3 533.3,219.3 533.3,219.2 533.3,219.1 533.5,218.9 533.7,218.7 533.9,218.5 534.2,218.3 534.6,218.1 535.0,217.8 535.5,217.6 536.1,217.3 536.7,217.0 537.3,216.7 538.0,216.4 538.7,216.0 539.4,215.6 540.2,215.2 540.9,214.8 541.7,214.3 542.3,213.8 542.9,213.4 543.4,212.9 543.8,212.5 544.1,212.1 544.4,211.8 544.7,211.4 545.0,211.1 545.2,210.7 545.5,210.3 545.7,210.0 546.0,209.5 546.3,209.1 546.7,208.5 547.2,208.0 547.7,207.4 548.2,206.7 548.7,206.1 549.3,205.4 549.8,204.7 550.3,204.1 550.9,203.4 551.5,202.7 552.1,202.0 552.8,201.3 553.4,200.5 554.0,199.7 554.6,199.1 555.1,198.5 555.5,197.8 556.0,197.0 556.5,196.3 556.9,195.5 557.2,194.8 557.4,194.2 557.6,193.6 557.8,192.9 558.0,192.3 558.1,191.6 558.3,191.0 558.5,190.2 558.7,189.5 559.0,188.7 559.3,187.8 559.6,186.9 559.9,186.0 560.2,185.1 560.5,184.3 560.8,183.4 561.2,182.5 561.6,181.6 561.9,180.7 562.3,179.8 562.7,178.8 562.9,177.9 563.1,177.1 563.4,176.3 563.6,175.4 563.9,174.5 564.0,173.6 564.2,172.8 564.2,172.0 564.4,171.2 564.5,170.3 564.6,169.5 564.7,168.7 564.8,167.9 564.9,167.1 564.9,166.4 564.9,165.7 565.0,164.9 565.1,164.0 565.2,163.1 565.3,162.2 565.5,161.2 565.7,160.3 565.8,159.3 566.0,158.4 566.2,157.5 566.4,156.6 566.6,155.6 566.9,154.7 567.0,153.7 567.1,152.8 567.2,151.8 567.3,150.8 567.4,149.8 567.4,148.9 567.4,148.0 567.3,147.1 567.3,146.3 567.3,145.5 567.3,144.6 567.3,143.8 567.3,142.9 567.3,142.1 567.4,141.2 567.4,140.3 567.4,139.4 567.4,138.6 567.4,137.7 567.4,136.8 567.5,135.9 567.6,135.0 567.7,134.0 567.8,133.1 567.9,132.2 568.1,131.3 568.2,130.3 568.4,129.4 568.5,128.5 568.6,127.5 568.7,126.5 568.7,125.5 568.8,124.5 568.8,123.5 568.7,122.6 568.6,121.7 568.5,120.9 568.5,120.0 568.4,119.1 568.4,118.3 568.3,117.4 568.3,116.6 568.3,115.7 568.2,114.9 568.2,113.9 568.2,113.0 568.2,112.0 568.2,111.2 568.1,110.4 568.1,109.5 568.2,108.6 568.2,107.6 568.3,106.7 568.4,105.8 568.5,104.9 568.7,104.0 568.8,103.1 568.9,102.2 569.0,101.2 569.1,100.2 569.1,99.2 569.1,98.2 569.1,97.2 569.1,96.2 568.9,95.4 568.8,94.5 568.8,93.7 568.7,92.8 568.6,91.9 568.6,91.0 568.5,90.1 568.4,89.3 568.4,88.4 568.4,87.5 568.4,86.5 568.4,85.6 568.2,84.8 568.2,84.0 568.2,83.1 568.3,82.2 568.3,81.2 568.4,80.3 568.5,79.4 568.6,78.5 568.8,77.6" fill="none" stroke="#4ea1ff" stroke-width="2.5"/>
<circle cx="82.1" cy="294.0" r="6" fill="#39d98a"/>
<text x="24.0" y="580.0" fill="#c8d2e0" font-family="monospace" font-size="14">θ=45° → left 到達✓</text>
</svg>
