<svg xmlns="http://www.w3.org/2000/svg" width="598.8" height="588.0" viewBox="0 0 598.8 588.0">
<rect x="0" y="0" width="598.8" height="588.0" fill="#0e1118"/>
<rect x="24.0" y="24.0" width="550.8" height="540.0" fill="#161b26" stroke="#2a3344"/>
<rect x="19.5" y="19.5" width="9.0" height="549.0" fill="#3a4659"/>
<rect x="574.8" y="19.5" width="9.0" height="549.0" fill="#3a4659"/>
<rect x="19.5" y="15.0" width="559.8" height="9.0" fill="#3a4659"/>
<rect x="19.5" y="564.0" width="559.8" height="9.0" fill="#3a4659"/>
<line x1="82.1" y1="294.0" x2="574.8" y2="294.0" stroke="#5b6b86" stroke-dasharray="6 5"/>
<circle cx="574.8" cy="294.0" r="10" fill="none" stroke="#e0556b" stroke-width="3"/>
<polyline points="82.0,294.1 82.0,294.8 82.1,295.5 82.1,296.3 82.3,297.2 82.6,297.7 83.2,297.6 83.9,297.6 84.6,297.5 85.4,297.5 86.2,297.5 87.0,297.4 87.8,297.4 88.6,297.3 89.4,297.3 90.2,297.2 91.0,297.2 91.9,297.2 92.8,297.2 93.8,297.2 94.7,297.3 95.5,297.1 96.2,296.9 96.7,296.9 97.3,296.9 97.9,297.0 98.6,297.0 99.4,297.1 100.1,297.1 101.0,297.1 101.8,297.2 102.7,297.2 103.7,297.2 104.6,297.1 105.5,297.1 106.4,297.1 107.3,297.0 108.1,297.0 108.9,296.9 109.7,296.8 110.4,296.8 111.2,296.7 111.9,296.6 112.7,296.6 113.4,296.5 114.3,296.5 115.1,296.5 116.0,296.4 117.0,296.4 117.9,296.4 118.8,296.5 119.6,296.5 120.5,296.5 121.3,296.5 122.1,296.6 122.9,296.6 123.7,296.7 124.5,296.7 125.4,296.7 126.2,296.8 127.1,296.8 128.0,296.8 128.9,296.7 129.9,296.7 130.8,296.7 131.7,296.6 132.5,296.6 133.3,296.5 134.1,296.5 134.9,296.4 135.7,296.4 136.5,296.3 137.3,296.3 138.1,296.2 138.9,296.2 139.8,296.2 140.7,296.2 141.6,296.2 142.5,296.2 143.4,296.3 144.3,296.3 145.1,296.4 145.9,296.4 146.7,296.5 147.5,296.5 148.3,296.6 149.1,296.6 149.9,296.7 150.8,296.7 151.6,296.7 152.6,296.8 153.5,296.8 154.4,296.8 155.3,296.7 156.2,296.7 157.1,296.7 157.9,296.6 158.7,296.6 159.5,296.5 160.3,296.5 161.1,296.5 161.9,296.4 162.7,296.4 163.6,296.4 164.5,296.4 165.4,296.4 166.3,296.4 167.2,296.5 168.1,296.5 169.0,296.5 169.8,296.6 170.6,296.7 171.4,296.7 172.1,296.8 172.9,296.8 173.7,296.9 174.5,296.9 175.4,297.0 176.3,297.0 177.2,297.0 178.2,297.0 179.1,297.0 180.0,296.9 180.9,296.9 181.7,296.9 182.5,296.8 183.3,296.8 184.1,296.7 184.9,296.7 185.7,296.6 186.5,296.6 187.3,296.6 188.2,296.5 189.1,296.5 190.0,296.5 190.9,296.5 191.8,296.6 192.7,296.6 193.6,296.7 194.4,296.7 195.2,296.8 196.0,296.8 196.8,296.9 197.6,296.9 198.4,296.9 199.2,297.0 200.1,297.0 201.0,297.0 201.9,297.0 202.8,297.0 203.8,297.0 204.7,296.9 205.5,296.9 206.4,296.8 207.2,296.8 208.0,296.7 208.7,296.7 209.5,296.6 210.3,296.6 211.1,296.5 211.9,296.5 212.8,296.5 213.7,296.4 214.6,296.5 215.5,296.5 216.4,296.5 217.3,296.5 218.2,296.6 219.0,296.6 219.8,296.7 220.6,296.7 221.4,296.8 222.2,296.8 223.0,296.9 223.8,296.9 224.7,296.9 225.6,296.9 226.5,296.9 227.5,296.9 228.4,296.9 229.3,296.8 230.2,296.8 231.0,296.7 231.8,296.7 232.6,296.6 233.3,296.6 234.1,296.5 234.9,296.5 235.7,296.4 236.6,296.4 237.5,296.4 238.4,296.4 239.3,296.4 240.2,296.4 241.1,296.5 242.0,296.5 242.8,296.5 243.6,296.6 244.4,296.7 245.2,296.7 246.0,296.8 246.8,296.8 247.6,296.9 248.4,296.9 249.3,296.9 250.2,296.9 251.2,296.9 252.1,296.9 253.0,296.9 253.9,296.8 254.8,296.8 255.6,296.8 256.4,296.7 257.2,296.6 257.9,296.6 258.7,296.6 259.5,296.5 260.3,296.5 261.2,296.5 262.1,296.4 263.0,296.5 263.9,296.5 264.8,296.5 265.7,296.5 266.6,296.6 267.4,296.6 268.2,296.7 269.0,296.7 269.8,296.8 270.6,296.8 271.4,296.9 272.2,296.9 273.1,297.0 274.0,297.0 274.9,297.0 275.8,297.0 276.7,297.0 277.7,296.9 278.5,296.9 279.4,296.8 280.2,296.8 281.0,296.7 281.8,296.7 282.6,296.6 283.3,296.6 284.1,296.6 285.0,296.5 285.8,296.5 286.7,296.5 287.6,296.5 288.6,296.5 289.5,296.5 290.4,296.6 291.2,296.6 292.0,296.7 292.9,296.7 293.6,296.8 294.4,296.8 295.2,296.9 296.0,296.9 296.8,296.9 297.7,297.0 298.6,297.0 299.5,297.0 300.5,297.0 301.4,297.0 302.3,296.9 303.2,296.9 304.0,296.8 304.8,296.8 305.6,296.7 306.4,296.7 307.2,296.6 308.0,296.6 308.8,296.5 309.6,296.5 310.5,296.5 311.4,296.5 312.3,296.5 313.2,296.5 314.1,296.5 315.0,296.6 315.8,296.6 316.7,296.7 317.5,296.7 318.3,296.8 319.0,296.8 319.8,296.9 320.6,296.9 321.5,296.9 322.3,297.0 323.2,297.0 324.2,297.0 325.1,297.0 326.0,296.9 326.9,296.9 327.8,296.9 328.6,296.8 329.4,296.8 330.2,296.7 331.0,296.7 331.8,296.6 332.6,296.6 333.4,296.5 334.2,296.5 335.1,296.5 336.0,296.5 336.9,296.5 337.8,296.5 338.7,296.5 339.6,296.6 340.5,296.6 341.3,296.7 342.1,296.7 342.9,296.8 343.6,296.8 344.4,296.9 345.2,296.9 346.1,296.9 347.0,297.0 347.9,297.0 348.8,297.0 349.7,297.0 350.7,296.9 351.6,296.9 352.4,296.9 353.3,296.8 354.1,296.8 354.8,296.7 355.6,296.7 356.4,296.6 357.2,296.6 358.0,296.5 358.9,296.5 359.7,296.5 360.6,296.5 361.6,296.5 362.5,296.5 363.4,296.6 364.2,296.6 365.1,296.6 365.9,296.7 366.7,296.8 367.5,296.8 368.3,296.9 369.1,296.9 369.9,296.9 370.7,297.0 371.6,297.0 372.5,297.0 373.4,297.0 374.4,297.0 375.3,297.0 376.2,296.9 377.0,296.9 377.9,296.8 378.7,296.8 379.5,296.7 380.2,296.7 381.0,296.6 381.8,296.6 382.6,296.5 383.5,296.5 384.4,296.5 385.3,296.5 386.2,296.5 387.1,296.5 388.0,296.6 388.9,296.6 389.7,296.7 390.5,296.7 391.3,296.8 392.1,296.8 392.9,296.9 393.7,296.9 394.5,297.0 395.4,297.0 396.2,297.0 397.2,297.0 398.1,297.0 399.0,297.0 399.9,297.0 400.8,296.9 401.7,296.9 402.5,296.8 403.3,296.8 404.1,296.7 404.8,296.7 405.6,296.6 406.4,296.6 407.2,296.5 408.1,296.5 409.0,296.5 409.9,296.5 410.8,296.5 411.7,296.6 412.6,296.6 413.5,296.6 414.3,296.7 415.1,296.7 415.9,296.8 416.7,296.9 417.5,296.9 418.3,296.9 419.1,297.0 420.0,297.0 420.9,297.0 421.8,297.0 422.7,297.0 423.7,297.0 424.6,297.0 425.5,296.9 426.3,296.9 427.1,296.8 427.9,296.8 428.7,296.7 429.4,296.7 430.2,296.6 431.0,296.6 431.9,296.6 432.7,296.5 433.6,296.5 434.6,296.5 435.5,296.5 436.4,296.6 437.3,296.6 438.1,296.7 438.9,296.7 439.7,296.8 440.5,296.8 441.3,296.9 442.1,296.9 442.9,297.0 443.7,297.0 444.6,297.0 445.5,297.0 446.4,297.0 447.4,297.0 448.3,297.0 449.2,297.0 450.1,296.9 450.9,296.9 451.7,296.8 452.5,296.8 453.3,296.7 454.1,296.7 454.8,296.6 455.7,296.6 456.5,296.6 457.4,296.5 458.3,296.5 459.2,296.5 460.1,296.6 461.0,296.6 461.9,296.6 462.7,296.7 463.6,296.7 464.4,296.8 465.1,296.8 465.9,296.9 466.7,296.9 467.5,297.0 468.4,297.0 469.2,297.0 470.2,297.0 471.1,297.0 472.0,297.0 472.9,297.0 473.8,297.0 474.7,296.9 475.5,296.9 476.3,296.8 477.1,296.8 477.9,296.7 478.7,296.7 479.5,296.6 480.3,296.6 481.1,296.6 482.0,296.6 482.9,296.5 483.8,296.6 484.8,296.6 485.6,296.6 486.5,296.6 487.4,296.7 488.2,296.7 489.0,296.8 489.8,296.9 490.5,296.9 491.3,297.0 492.2,297.0 493.0,297.0 493.9,297.0 494.8,297.1 495.7,297.0 496.7,297.0 497.6,297.0 498.5,297.0 499.3,296.9 500.2,296.9 501.0,296.8 501.7,296.8 502.5,296.7 503.3,296.7 504.1,296.6 504.9,296.6 505.8,296.6 506.7,296.6 507.6,296.6 508.5,296.6 509.4,296.6 510.3,296.6 511.1,296.7 512.0,296.7 512.8,296.8 513.6,296.8 514.4,296.9 515.2,296.9 516.0,297.0 516.8,297.0 517.6,297.0 518.5,297.1 519.4,297.1 520.4,297.1 521.3,297.0 522.2,297.0 523.1,297.0 524.0,296.9 524.8,296.9 525.6,296.8 526.3,296.8 527.1,296.7 527.3,296.7 527.3,296.6 527.4,296.6 527.5,296.6 527.5,296.5 527.6,296.5 527.6,296.5 527.5,296.4 527.5,296.4 527.5,296.4 527.5,296.4 527.5,296.4 527.4,296.5 527.4,296.5 527.3,296.5 527.3,296.5 527.2,296.5 527.1,296.5 527.0,296.5 526.8,296.5 526.8,296.4 526.8,296.3 527.0,296.2 527.2,296.1 527.6,296.1 528.0,296.1 528.4,296.1 528.9,296.1 529.3,296.0 529.8,296.0 530.2,296.1 530.6,296.1 531.0,296.1 531.4,296.1 531.8,296.1 532.1,296.2 532.4,296.2 532.7,296.2 532.9,296.2 532.9,296.2 533.0,296.2 532.9,296.2 532.8,296.2 532.7,296.2 532.5,296.2 532.3,296.2 532.0,296.2 531.8,296.2 531.6,296.2 531.6,296.2 531.5,296.3 531.4,296.4 530.9,296.8 530.2,297.5 529.4,298.0 529.2,298.1 529.2,298.0 529.1,297.8 528.7,297.6 528.1,297.5 527.5,297.2 526.9,296.8 526.5,296.2 526.1,295.6 525.7,295.1 525.5,294.5 525.5,293.9 525.6,293.1 525.6,292.2 526.0,292.2 526.7,292.4 527.5,292.6 528.3,293.0 529.1,293.2 529.7,293.2 529.8,293.3 529.9,293.5 529.9,293.7 530.0,293.7 530.2,293.6 530.5,293.7 530.8,293.9 531.2,294.0 531.7,294.2 532.2,294.4 532.5,294.5 532.8,294.6 532.9,294.7 533.0,294.8 533.1,294.9 533.2,295.0 533.3,295.1 533.4,295.1 533.4,294.2 533.5,293.0 533.8,292.1 534.0,292.1 534.2,292.2 534.3,292.4 534.5,292.5 534.6,292.7 534.8,292.9 534.9,293.0 535.1,293.2 535.3,293.4 535.6,293.7 536.0,294.0 536.4,294.3 536.9,294.6 537.3,294.9 537.6,295.1 538.0,295.3 538.3,295.6 538.7,295.8 538.9,296.1 539.1,296.3 539.4,296.6 539.8,296.8" fill="none" stroke="#4ea1ff" stroke-width="2.5"/>
<circle cx="82.1" cy="294.0" r="6" fill="#39d98a"/>
<text x="24.0" y="580.0" fill="#c8d2e0" font-family="monospace" font-size="14">θ=0° → front 未到達</text>
</svg>
