<svg xmlns="http://www.w3.org/2000/svg" width="598.8" height="588.0" viewBox="0 0 598.8 588.0">
<rect x="0" y="0" width="598.8" height="588.0" fill="#0e1118"/>
<rect x="24.0" y="24.0" width="550.8" height="540.0" fill="#161b26" stroke="#2a3344"/>
<rect x="19.5" y="19.5" width="9.0" height="549.0" fill="#3a4659"/>
<rect x="574.8" y="19.5" width="9.0" height="549.0" fill="#3a4659"/>
<rect x="19.5" y="15.0" width="559.8" height="9.0" fill="#3a4659"/>
<rect x="19.5" y="564.0" width="559.8" height="9.0" fill="#3a4659"/>
<line x1="82.1" y1="294.0" x2="352.1" y2="564.0" stroke="#5b6b86" stroke-dasharray="6 5"/>
<circle cx="352.1" cy="564.0" r="10" fill="none" stroke="#e0556b" stroke-width="3"/>
<polyline points="82.0,294.1 82.0,294.3 82.0,294.5 82.0,295.1 82.0,296.2 81.9,296.9 82.1,297.3 82.3,297.3 82.7,297.2 83.1,297.2 83.6,297.1 84.0,297.0 84.4,296.9 84.7,296.8 85.0,296.8 85.3,296.8 85.6,296.9 86.0,297.0 86.4,297.0 86.9,297.0 87.5,297.2 88.0,297.4 88.4,297.5 88.8,297.5 89.1,297.4 89.5,297.4 89.8,297.5 90.1,297.8 90.4,297.9 90.6,298.0 90.9,298.0 91.2,298.0 91.6,298.1 91.9,298.2 92.2,298.2 92.5,298.2 92.8,298.1 93.2,298.1 93.6,298.3 93.9,298.4 94.2,298.4 94.5,298.4 94.8,298.3 95.1,298.4 95.4,298.5 95.7,298.6 96.0,298.6 96.4,298.6 96.8,298.7 97.2,298.9 97.5,299.1 97.9,299.2 98.3,299.2 98.6,299.2 98.9,299.2 99.1,299.4 99.3,299.6 99.5,299.8 99.7,299.8 99.9,299.7 100.1,299.8 100.2,299.9 100.4,300.1 100.7,300.1 100.9,300.0 101.2,300.1 101.5,300.2 101.8,300.3 102.1,300.5 102.4,300.5 102.7,300.5 103.0,300.5 103.3,300.6 103.5,300.8 103.9,300.9 104.2,301.0 104.6,301.0 105.0,301.2 105.3,301.4 105.6,301.6 106.0,301.8 106.3,301.8 106.6,301.8 106.9,301.9 107.1,302.1 107.3,302.4 107.4,302.5 107.6,302.5 107.8,302.5 108.0,302.6 108.1,302.8 108.3,302.9 108.5,302.9 108.8,302.9 109.1,303.0 109.4,303.1 109.6,303.3 109.9,303.5 110.2,303.5 110.6,303.6 110.8,303.6 111.1,303.8 111.3,304.0 111.6,304.1 112.0,304.2 112.4,304.3 112.7,304.5 113.0,304.8 113.3,305.0 113.6,305.2 114.0,305.2 114.3,305.3 114.5,305.4 114.7,305.7 114.8,305.9 115.0,306.0 115.2,306.1 115.4,306.1 115.5,306.2 115.7,306.4 115.8,306.5 116.1,306.5 116.3,306.5 116.6,306.7 116.9,306.9 117.1,307.1 117.4,307.3 117.7,307.4 118.0,307.4 118.3,307.5 118.5,307.7 118.7,307.9 119.0,308.0 119.4,308.2 119.8,308.3 120.1,308.6 120.3,308.9 120.6,309.1 120.9,309.3 121.2,309.4 121.5,309.5 121.8,309.7 121.9,310.0 122.0,310.2 122.2,310.3 122.4,310.3 122.5,310.4 122.6,310.5 122.8,310.7 122.9,310.9 123.2,310.9 123.5,311.0 123.7,311.1 123.9,311.4 124.2,311.6 124.4,311.8 124.7,311.9 125.0,312.0 125.2,312.1 125.4,312.4 125.7,312.6 126.0,312.7 126.3,312.9 126.7,313.1 126.9,313.4 127.1,313.8 127.4,314.0 127.7,314.2 128.0,314.3 128.3,314.4 128.5,314.7 128.6,315.0 128.7,315.2 128.8,315.3 129.0,315.4 129.2,315.5 129.3,315.6 129.2,316.1 129.4,316.4 129.9,316.7 130.5,317.1 131.2,317.6 132.0,318.0 132.7,318.4 133.4,318.9 134.1,319.3 134.8,319.7 135.5,320.2 136.2,320.7 136.9,321.2 137.6,321.7 138.4,322.3 139.1,322.8 139.8,323.4 140.5,323.9 141.1,324.5 141.7,325.0 142.3,325.5 142.8,326.0 143.4,326.5 143.9,327.0 144.5,327.5 145.1,328.0 145.7,328.5 146.4,329.1 147.1,329.7 147.8,330.2 148.6,330.8 149.3,331.4 150.0,331.9 150.7,332.4 151.4,332.9 152.0,333.3 152.7,333.8 153.3,334.2 153.9,334.7 154.5,335.2 155.2,335.7 155.9,336.2 156.6,336.8 157.3,337.3 158.0,337.9 158.7,338.5 159.3,339.1 160.0,339.7 160.6,340.3 161.1,340.8 161.7,341.3 162.2,341.9 162.8,342.4 163.4,342.9 164.0,343.5 164.6,344.0 165.3,344.6 166.0,345.2 166.7,345.8 167.4,346.4 168.1,346.9 168.8,347.5 169.5,348.0 170.2,348.5 170.8,348.9 171.4,349.4 172.0,349.8 172.6,350.3 173.3,350.8 173.9,351.3 174.6,351.8 175.3,352.4 176.0,353.0 176.7,353.6 177.4,354.2 178.0,354.8 178.6,355.3 179.2,355.9 179.8,356.5 180.3,357.0 180.9,357.5 181.4,358.1 182.0,358.6 182.6,359.2 183.3,359.7 184.0,360.3 184.7,360.9 185.4,361.5 186.1,362.1 186.8,362.6 187.5,363.2 188.2,363.7 188.8,364.1 189.4,364.6 190.1,365.0 190.7,365.5 191.3,366.0 191.9,366.4 192.6,367.0 193.3,367.5 194.0,368.1 194.6,368.7 195.3,369.3 196.0,369.9 196.7,370.5 197.3,371.1 197.9,371.6 198.4,372.2 199.0,372.7 199.5,373.2 200.1,373.8 200.7,374.3 201.3,374.9 201.9,375.5 202.6,376.0 203.3,376.6 204.1,377.2 204.8,377.8 205.5,378.4 206.2,378.9 206.8,379.4 207.5,379.8 208.1,380.3 208.7,380.8 209.3,381.2 209.9,381.7 210.6,382.2 211.2,382.7 211.9,383.2 212.6,383.8 213.3,384.4 214.0,385.0 214.7,385.6 215.3,386.2 215.9,386.8 216.5,387.4 217.0,387.9 217.6,388.4 218.1,389.0 218.7,389.5 219.3,390.0 219.9,390.6 220.6,391.2 221.3,391.8 222.0,392.4 222.7,393.0 223.4,393.5 224.1,394.1 224.8,394.6 225.5,395.1 226.1,395.6 226.7,396.0 227.3,396.5 227.9,396.9 228.6,397.4 229.2,397.9 229.9,398.4 230.6,399.0 231.3,399.6 232.0,400.2 232.6,400.8 233.3,401.4 233.9,402.0 234.5,402.5 235.1,403.1 235.7,403.6 236.2,404.2 236.8,404.7 237.3,405.2 237.9,405.8 238.6,406.3 239.2,406.9 239.9,407.5 240.6,408.1 241.4,408.7 242.1,409.3 242.8,409.8 243.5,410.3 244.1,410.8 244.7,411.3 245.3,411.7 246.0,412.2 246.6,412.6 247.2,413.1 247.8,413.6 248.5,414.1 249.2,414.7 249.9,415.3 250.6,415.9 251.3,416.5 251.9,417.1 252.6,417.7 253.2,418.3 253.7,418.8 254.3,419.4 254.8,419.9 255.4,420.4 256.0,421.0 256.6,421.5 257.2,422.1 257.9,422.7 258.6,423.3 259.3,423.9 260.0,424.5 260.7,425.0 261.4,425.5 262.1,426.1 262.7,426.5 263.4,427.0 264.0,427.4 264.6,427.9 265.2,428.4 265.8,428.8 266.5,429.3 267.2,429.9 267.9,430.5 268.5,431.1 269.2,431.7 269.9,432.3 270.6,432.9 271.2,433.4 271.8,434.0 272.3,434.6 272.9,435.1 273.4,435.6 274.0,436.2 274.6,436.7 275.2,437.3 275.8,437.8 276.5,438.4 277.2,439.0 277.9,439.6 278.7,440.2 279.4,440.8 280.1,441.3 280.7,441.8 281.4,442.3 282.0,442.7 282.6,443.2 283.2,443.6 283.8,444.1 284.5,444.6 285.1,445.1 285.8,445.6 286.5,446.2 287.2,446.8 287.9,447.4 288.6,448.0 289.2,448.6 289.8,449.2 290.4,449.7 291.0,450.3 291.5,450.8 292.1,451.4 292.6,451.9 293.2,452.4 293.8,453.0 294.5,453.6 295.2,454.2 295.9,454.8 296.6,455.4 297.3,455.9 298.0,456.5 298.7,457.0 299.4,457.5 300.0,458.0 300.6,458.4 301.2,458.9 301.8,459.3 302.5,459.8 303.1,460.3 303.8,460.8 304.4,461.4 305.1,462.0 305.8,462.6 306.5,463.2 307.2,463.8 307.8,464.4 308.4,464.9 309.0,465.5 309.6,466.0 310.1,466.6 310.7,467.1 311.2,467.6 311.8,468.2 312.4,468.8 313.1,469.3 313.8,469.9 314.5,470.5 315.2,471.1 315.9,471.7 316.7,472.2 317.3,472.7 318.0,473.2 318.6,473.7 319.2,474.2 319.8,474.6 320.5,475.1 321.1,475.5 321.7,476.0 322.4,476.6 323.1,477.1 323.8,477.7 324.5,478.3 325.2,478.9 325.8,479.5 326.4,480.1 327.0,480.7 327.6,481.2 328.2,481.8 328.7,482.3 329.3,482.8 329.8,483.4 330.4,483.9 331.1,484.5 331.7,485.1 332.4,485.7 333.1,486.3 333.9,486.9 334.6,487.4 335.3,488.0 336.0,488.5 336.6,489.0 337.2,489.4 337.9,489.9 338.5,490.3 339.1,490.8 339.7,491.3 340.4,491.8 341.0,492.3 341.7,492.9 342.4,493.5 343.1,494.1 343.8,494.7 344.4,495.3 345.1,495.9 345.7,496.4 346.2,497.0 346.8,497.5 347.3,498.1 347.9,498.6 348.5,499.1 349.1,499.7 349.7,500.3 350.4,500.8 351.1,501.4 351.8,502.0 352.5,502.6 353.2,503.2 353.9,503.7 354.6,504.2 355.2,504.7 355.9,505.2 356.5,505.6 357.1,506.1 357.7,506.5 358.3,507.0 359.0,507.5 359.7,508.1 360.3,508.6 361.0,509.2 361.7,509.8 362.4,510.4 363.1,511.0 363.7,511.6 364.3,512.2 364.8,512.7 365.4,513.3 365.9,513.8 366.5,514.3 367.1,514.9 367.7,515.4 368.3,516.0 369.0,516.6 369.7,517.2 370.4,517.8 371.1,518.4 371.9,518.9 372.5,519.5 373.2,520.0 373.9,520.4 374.5,520.9 375.1,521.3 375.7,521.8 376.3,522.3 376.9,522.7 377.6,523.3 378.3,523.8 379.0,524.4 379.7,525.0 380.4,525.6 381.0,526.2 381.7,526.8 382.3,527.4 382.9,527.9 383.4,528.5 384.0,529.0 384.5,529.6 385.1,530.1 385.7,530.6 386.3,531.2 386.9,531.8 387.6,532.4 388.3,533.0 389.1,533.6 389.8,534.1 390.5,534.7 391.2,535.2 391.7,535.5 392.1,535.7 392.5,535.8 392.8,536.0 393.1,536.0 393.5,536.1 393.8,536.2 394.1,536.3 394.6,536.4 395.0,536.6 395.6,536.9 396.1,537.2 396.8,537.6 397.4,538.0 398.1,538.4 398.8,538.9 399.4,539.4 400.1,539.9 400.7,540.4 401.4,540.8 402.0,541.3 402.7,541.7 403.5,542.2 404.3,542.7 405.1,543.2 405.9,543.6 406.6,544.1 407.4,544.4 408.1,544.7 408.7,544.9 409.2,545.1 409.7,545.2 410.2,545.3 410.7,545.4 411.2,545.5 411.8,545.6 412.4,545.7 413.0,545.9 413.7,546.1 414.5,546.3 415.3,546.6 416.1,546.9 416.9,547.3 417.7,547.6 418.5,547.9 419.2,548.3 420.0,548.6 420.7,548.9 421.4,549.3 422.2,549.6 423.0,549.9 423.9,550.2 424.7,550.5 425.6,550.8 426.5,551.1 427.3,551.3 428.2,551.6 428.9,551.8 429.7,552.0 430.4,552.2 431.1,552.2 431.6,552.3 432.2,552.3 432.7,552.3 433.4,552.3" fill="none" stroke="#4ea1ff" stroke-width="2.5"/>
<circle cx="82.1" cy="294.0" r="6" fill="#39d98a"/>
<text x="24.0" y="580.0" fill="#c8d2e0" font-family="monospace" font-size="14">θ=-45° → right 未到達</text>
</svg>
