<svg xmlns="http://www.w3.org/2000/svg" width="598.8" height="588.0" viewBox="0 0 598.8 588.0">
<rect x="0" y="0" width="598.8" height="588.0" fill="#0e1118"/>
<rect x="24.0" y="24.0" width="550.8" height="540.0" fill="#161b26" stroke="#2a3344"/>
<rect x="19.5" y="19.5" width="9.0" height="549.0" fill="#3a4659"/>
<rect x="574.8" y="19.5" width="9.0" height="549.0" fill="#3a4659"/>
<rect x="19.5" y="15.0" width="559.8" height="9.0" fill="#3a4659"/>
<rect x="19.5" y="564.0" width="559.8" height="9.0" fill="#3a4659"/>
<line x1="82.1" y1="294.0" x2="352.1" y2="564.0" stroke="#5b6b86" stroke-dasharray="6 5"/>
<circle cx="352.1" cy="564.0" r="10" fill="none" stroke="#e0556b" stroke-width="3"/>
<polyline points="82.0,294.1 82.0,294.5 82.0,295.2 81.9,296.5 81.9,297.9 82.0,299.4 82.0,300.0 82.3,300.0 82.9,299.8 83.6,299.6 84.3,299.6 84.9,299.6 85.5,299.5 86.0,299.5 86.4,299.5 86.8,299.5 87.3,299.5 87.9,299.5 88.6,299.4 89.2,299.4 89.9,299.6 90.5,299.8 91.2,300.0 91.8,300.1 92.4,300.0 93.1,299.9 93.7,300.0 94.3,300.1 94.9,300.2 95.5,300.2 96.0,300.1 96.5,300.1 97.0,300.3 97.5,300.4 98.1,300.4 98.7,300.4 99.3,300.4 99.9,300.6 100.5,300.7 101.0,300.9 101.5,300.9 102.1,300.9 102.6,301.0 103.0,301.1 103.4,301.2 103.9,301.3 104.5,301.5 105.2,301.6 105.8,301.8 106.3,302.1 106.9,302.3 107.4,302.5 108.0,302.6 108.6,302.7 109.2,302.8 109.6,303.1 110.1,303.3 110.5,303.6 111.0,303.7 111.5,303.8 111.9,303.9 112.3,304.1 112.8,304.4 113.4,304.5 113.9,304.7 114.5,304.9 115.0,305.2 115.5,305.5 115.9,305.8 116.4,306.0 117.0,306.2 117.5,306.4 117.8,306.6 118.2,306.9 118.7,307.2 119.2,307.5 119.9,307.8 120.4,308.2 120.9,308.7 121.3,309.1 121.8,309.5 122.4,309.8 122.9,310.0 123.5,310.4 124.0,310.9 124.4,311.4 124.8,311.7 125.4,312.1 126.0,312.6 126.8,313.1 127.7,313.6 128.5,314.2 129.4,314.7 130.2,315.2 131.0,315.7 131.8,316.2 132.5,316.7 133.0,317.2 133.5,317.7 134.0,318.2 134.5,318.7 135.1,319.2 135.7,319.7 136.4,320.2 137.1,320.8 137.7,321.5 138.4,322.2 139.1,322.8 139.7,323.4 140.2,324.1 140.8,324.7 141.4,325.4 141.9,326.0 142.4,326.6 142.9,327.2 143.4,327.8 143.9,328.4 144.4,329.1 145.0,329.7 145.6,330.4 146.2,331.1 146.8,331.8 147.5,332.5 148.1,333.2 148.7,333.8 149.3,334.4 149.8,335.0 150.4,335.6 151.0,336.2 151.6,336.8 152.1,337.5 152.7,338.1 153.3,338.8 153.9,339.5 154.5,340.2 155.1,341.0 155.6,341.7 156.1,342.3 156.6,343.0 157.1,343.6 157.5,344.2 157.9,344.8 158.3,345.4 158.8,345.9 159.2,346.5 159.7,347.2 160.2,347.8 160.8,348.5 161.4,349.1 162.0,349.8 162.6,350.5 163.3,351.2 163.9,351.8 164.5,352.5 165.1,353.0 165.7,353.6 166.3,354.2 166.9,354.8 167.4,355.4 168.0,356.0 168.6,356.6 169.3,357.2 169.9,357.9 170.5,358.5 171.2,359.2 171.8,359.9 172.4,360.5 172.9,361.2 173.5,361.8 174.0,362.4 174.5,363.0 175.0,363.5 175.5,364.1 176.1,364.7 176.7,365.3 177.3,366.0 177.9,366.6 178.6,367.2 179.3,367.9 180.0,368.5 180.7,369.1 181.3,369.6 181.9,370.2 182.6,370.7 183.1,371.1 183.7,371.6 184.3,372.1 184.9,372.6 185.5,373.1 186.2,373.6 186.8,374.2 187.5,374.8 188.1,375.4 188.8,376.1 189.4,376.7 190.1,377.3 190.7,377.9 191.3,378.5 191.8,379.1 192.4,379.7 193.0,380.3 193.5,380.9 194.1,381.5 194.7,382.1 195.4,382.7 196.1,383.4 196.7,384.0 197.4,384.6 198.1,385.2 198.8,385.8 199.4,386.3 200.1,386.8 200.7,387.3 201.2,387.8 201.8,388.3 202.4,388.8 203.0,389.3 203.6,389.8 204.2,390.4 204.9,391.0 205.5,391.7 206.2,392.3 206.8,392.9 207.4,393.6 208.0,394.2 208.5,394.9 209.1,395.5 209.6,396.1 210.1,396.7 210.6,397.3 211.2,397.9 211.7,398.5 212.3,399.1 212.9,399.7 213.6,400.4 214.2,401.1 214.9,401.7 215.5,402.4 216.2,403.0 216.8,403.6 217.4,404.1 218.0,404.7 218.6,405.2 219.2,405.7 219.8,406.2 220.3,406.8 221.0,407.4 221.6,408.0 222.2,408.7 222.8,409.3 223.5,410.0 224.1,410.7 224.7,411.3 225.2,412.0 225.7,412.6 226.2,413.2 226.7,413.8 227.2,414.4 227.7,415.0 228.2,415.6 228.8,416.2 229.4,416.8 230.0,417.5 230.6,418.1 231.3,418.8 231.9,419.5 232.6,420.1 233.2,420.7 233.8,421.3 234.5,421.8 235.0,422.4 235.6,422.9 236.2,423.4 236.8,424.0 237.4,424.5 238.0,425.1 238.7,425.7 239.3,426.4 239.9,427.0 240.6,427.7 241.2,428.3 241.8,429.0 242.4,429.6 242.9,430.2 243.4,430.8 243.9,431.4 244.5,432.0 245.0,432.6 245.5,433.2 246.1,433.8 246.7,434.5 247.3,435.1 248.0,435.8 248.7,436.4 249.3,437.0 250.0,437.7 250.6,438.2 251.3,438.8 251.9,439.3 252.5,439.8 253.1,440.3 253.6,440.8 254.2,441.3 254.8,441.9 255.5,442.5 256.1,443.1 256.7,443.7 257.4,444.3 258.0,445.0 258.7,445.6 259.3,446.3 259.8,446.9 260.4,447.5 260.9,448.1 261.5,448.7 262.0,449.3 262.5,449.9 263.1,450.5 263.7,451.1 264.3,451.7 264.9,452.4 265.6,453.0 266.3,453.7 266.9,454.3 267.6,454.9 268.2,455.5 268.9,456.0 269.5,456.6 270.1,457.1 270.6,457.6 271.2,458.1 271.8,458.6 272.4,459.1 273.0,459.7 273.7,460.3 274.3,461.0 275.0,461.6 275.6,462.3 276.2,462.9 276.8,463.6 277.4,464.2 277.9,464.8 278.4,465.4 278.9,466.0 279.5,466.6 280.0,467.2 280.5,467.8 281.1,468.4 281.7,469.1 282.4,469.7 283.0,470.4 283.7,471.0 284.4,471.7 285.0,472.3 285.6,472.8 286.3,473.4 286.9,473.9 287.4,474.4 288.0,475.0 288.6,475.5 289.2,476.0 289.8,476.6 290.4,477.2 291.1,477.8 291.7,478.5 292.4,479.1 293.0,479.8 293.6,480.4 294.2,481.1 294.7,481.7 295.2,482.3 295.8,482.9 296.3,483.5 296.8,484.1 297.3,484.7 297.9,485.3 298.4,485.9 299.0,486.6 299.7,487.2 300.3,487.9 301.0,488.5 301.7,489.2 302.3,489.8 303.0,490.3 303.6,490.9 304.2,491.4 304.8,491.9 305.3,492.4 305.9,493.0 306.5,493.5 307.1,494.1 307.8,494.7 308.4,495.3 309.1,496.0 309.7,496.6 310.3,497.3 310.9,497.9 311.5,498.6 312.0,499.2 312.6,499.8 313.1,500.4 313.6,501.0 314.1,501.6 314.7,502.2 315.2,502.8 315.8,503.4 316.4,504.0 317.1,504.7 317.8,505.4 318.4,506.0 319.1,506.6 319.7,507.2 320.4,507.8 321.0,508.3 321.6,508.8 322.2,509.3 322.8,509.8 323.3,510.4 323.9,510.9 324.6,511.5 325.2,512.1 325.8,512.7 326.5,513.4 327.1,514.0 327.7,514.7 328.3,515.3 328.9,515.9 329.5,516.6 330.0,517.2 330.5,517.8 331.0,518.4 331.6,519.0 332.1,519.6 332.7,520.2 333.3,520.8 333.9,521.4 334.6,522.1 335.2,522.7 335.9,523.4 336.6,524.0 337.2,524.6 337.8,525.1 338.4,525.7 339.0,526.2 339.6,526.7 340.2,527.2 340.8,527.7 341.4,528.3 342.0,528.8 342.2,528.8 342.4,528.9 342.6,529.0 342.9,529.1 343.2,529.3 343.6,529.6 344.0,530.0 344.5,530.4 344.9,530.8 345.4,531.3 345.9,531.8 346.5,532.3 347.0,532.8 347.6,533.3 348.2,533.8 348.8,534.3 349.3,534.7 349.9,535.1 350.4,535.4 350.8,535.6 351.2,535.7 351.5,535.8 351.8,535.8 352.0,535.8 352.3,535.8 352.4,535.7 352.6,535.7 352.8,535.6 353.0,535.5 353.3,535.5 353.6,535.5 353.9,535.6 354.3,535.7 354.7,535.9 355.0,536.3 355.3,536.7 355.8,537.1 356.4,537.5 357.0,537.8 357.6,538.2 358.3,538.6 358.9,538.9 359.6,539.3 360.3,539.4 361.0,539.5 361.6,539.4 362.1,539.5 362.5,539.5 362.9,539.6 363.2,539.6 363.5,539.6 363.8,539.5 364.0,539.5 364.2,539.4 364.4,539.3 364.5,539.3 364.7,539.3 365.0,539.2 365.3,539.2 365.6,539.3 365.9,539.4 366.0,539.7 366.2,540.1 366.6,540.4 367.1,540.7 367.7,541.0 368.3,541.3 369.0,541.6 369.7,541.9 370.5,542.2 371.2,542.6 372.0,542.9 372.7,543.1 373.4,543.4 374.1,543.6 374.8,543.7 375.4,543.8 375.9,543.8 376.3,543.8 376.6,543.8 377.0,543.7 377.1,543.8 377.3,543.8 377.5,543.7 377.7,543.6 377.9,543.6 378.3,543.6 378.7,543.6 379.0,543.7 379.4,543.8 379.7,544.2 380.0,544.5 380.5,544.8 381.1,545.1 381.8,545.3 382.6,545.6 383.3,545.9 384.1,546.1 384.9,546.4 385.7,546.6 386.6,546.9 387.4,547.1 388.2,547.3 388.9,547.4 389.6,547.5 390.3,547.5 390.9,547.5 391.3,547.5 391.7,547.3 391.9,547.2 392.1,547.3 392.3,547.2 392.5,547.1 392.7,547.0 393.0,546.9 393.4,546.8 393.7,546.9 394.1,547.0 394.5,547.3 394.8,547.6 395.3,547.9 395.8,548.1 396.5,548.3 397.2,548.5 398.1,548.7 398.9,549.0 399.8,549.2 400.6,549.4 401.5,549.6 402.3,549.7 403.2,549.9 404.0,550.0 404.8,550.1 405.6,550.1 406.3,550.1 406.9,550.1 407.4,550.1 407.7,550.0 407.9,549.9 408.1,549.9 408.3,549.9 408.6,549.7 408.8,549.6 409.1,549.5 409.3,549.6 409.7,549.7 410.2,549.7 410.6,550.0 411.0,550.3 411.5,550.5 412.1,550.7 412.9,550.9 413.7,551.1 414.6,551.2 415.5,551.4 416.3,551.6 417.2,551.7 418.1,551.9 419.0,552.0 419.9,552.1 420.7,552.2 421.6,552.2 422.4,552.2 423.1,552.1 423.7,552.0 424.2,552.0 424.4,552.0 424.6,551.9 424.8,551.9 425.1,551.8 425.4,551.7 425.7,551.5 425.9,551.5 426.2,551.6 426.6,551.7 427.1,551.7 427.6,552.1 428.0,552.3 428.6,552.5 429.3,552.7 430.0,552.8 430.9,552.9 431.8,553.0 432.7,553.2 433.6,553.3 434.5,553.5 435.4,553.6 436.4,553.7 437.3,553.7 438.2,553.8 439.1,553.8 439.9,553.7 440.7,553.6 441.3,553.5 441.7,553.5 441.9,553.5 442.1,553.4 442.4,553.4 442.6,553.3 442.9,553.2 443.2,553.1" fill="none" stroke="#4ea1ff" stroke-width="2.5"/>
<circle cx="82.1" cy="294.0" r="6" fill="#39d98a"/>
<text x="24.0" y="580.0" fill="#c8d2e0" font-family="monospace" font-size="14">θ=-45° → right 未到達</text>
</svg>
