<svg xmlns="http://www.w3.org/2000/svg" width="598.8" height="588.0" viewBox="0 0 598.8 588.0">
<rect x="0" y="0" width="598.8" height="588.0" fill="#0e1118"/>
<rect x="24.0" y="24.0" width="550.8" height="540.0" fill="#161b26" stroke="#2a3344"/>
<rect x="19.5" y="19.5" width="9.0" height="549.0" fill="#3a4659"/>
<rect x="574.8" y="19.5" width="9.0" height="549.0" fill="#3a4659"/>
<rect x="19.5" y="15.0" width="559.8" height="9.0" fill="#3a4659"/>
<rect x="19.5" y="564.0" width="559.8" height="9.0" fill="#3a4659"/>
<line x1="82.1" y1="294.0" x2="82.1" y2="24.0" stroke="#5b6b86" stroke-dasharray="6 5"/>
<circle cx="82.1" cy="24.0" r="10" fill="none" stroke="#e0556b" stroke-width="3"/>
<polyline points="82.0,294.1 82.1,294.9 82.4,295.9 82.8,296.3 83.1,296.3 83.4,296.1 84.0,296.1 84.8,296.1 85.6,296.0 86.4,295.9 87.3,295.7 88.2,295.5 89.1,295.3 90.1,295.0 91.0,294.7 91.9,294.5 92.7,294.3 93.5,294.1 94.2,294.1 94.9,294.1 95.5,294.2 96.2,294.2 97.0,294.3 97.8,294.4 98.5,294.4 99.3,294.4 100.0,294.4 100.7,294.3 101.3,294.2 102.1,294.1 102.9,294.0 103.8,294.0 104.8,293.9 105.8,293.8 106.7,293.7 107.5,293.6 108.1,293.8 108.7,294.0 109.4,294.0 110.0,293.9 110.8,293.5 111.5,293.1 112.3,292.6 113.1,292.1 113.9,291.6 114.7,291.2 115.4,290.8 116.1,290.6 116.8,290.5 117.4,290.4 118.2,290.2 118.9,290.1 119.7,289.9 120.4,289.7 121.2,289.5 121.9,289.2 122.5,288.9 123.1,288.7 123.8,288.4 124.5,288.1 125.5,287.8 126.4,287.4 127.3,287.0 128.1,286.6 128.8,286.4 129.4,286.4 130.1,286.4 130.7,286.2 131.3,285.8 131.9,285.3 132.5,284.6 133.1,283.9 133.7,283.1 134.4,282.5 135.0,281.8 135.6,281.3 136.1,280.9 136.7,280.6 137.4,280.3 138.0,280.0 138.7,279.6 139.4,279.2 140.0,278.7 140.7,278.3 141.3,277.9 141.7,277.4 142.3,277.0 142.9,276.5 143.5,276.0 144.3,275.4 145.1,274.7 145.8,274.1 146.5,273.5 147.1,273.2 147.7,273.0 148.3,272.8 148.8,272.4 149.3,271.8 149.7,271.1 150.0,270.2 150.4,269.4 150.8,268.5 151.2,267.7 151.6,266.9 152.0,266.3 152.5,265.7 152.9,265.3 153.5,264.8 154.0,264.3 154.6,263.7 155.1,263.1 155.5,262.5 156.0,261.9 156.4,261.3 156.8,260.8 157.2,260.1 157.6,259.5 158.1,258.8 158.6,258.0 159.2,257.2 159.7,256.4 160.1,255.6 160.6,255.2 161.1,254.8 161.6,254.4 162.0,253.8 162.3,253.1 162.4,252.3 162.5,251.4 162.6,250.4 162.7,249.5 162.9,248.6 163.1,247.8 163.3,247.1 163.6,246.4 163.9,245.9 164.3,245.2 164.6,244.5 165.0,243.8 165.3,243.1 165.6,242.3 165.8,241.6 166.0,240.9 166.2,240.2 166.5,239.5 166.7,238.8 166.9,237.9 167.2,237.0 167.4,236.2 167.6,235.4 167.8,234.6 168.2,234.0 168.7,233.5 169.0,233.0 169.2,232.3 169.2,231.6 169.1,230.7 168.9,229.8 168.7,228.9 168.6,228.0 168.6,227.1 168.6,226.3 168.8,225.5 169.1,224.8 169.3,224.0 169.4,223.3 169.6,222.5 169.6,221.8 169.7,221.1 169.8,220.3 170.0,219.6 170.0,218.8 170.1,218.1 170.2,217.3 170.2,216.4 170.3,215.6 170.3,214.6 170.3,213.7 170.3,212.8 170.2,211.9 170.2,211.0 170.1,210.2 170.1,209.4 170.0,208.6 169.9,207.8 169.8,207.1 169.7,206.3 169.6,205.5 169.5,204.8 169.4,203.9 169.3,203.1 169.2,202.2 169.1,201.3 169.0,200.4 168.9,199.5 168.9,198.5 168.8,197.6 168.8,196.8 168.7,195.9 168.7,195.0 168.6,194.2 168.6,193.3 168.5,192.5 168.4,191.6 168.3,190.6 168.2,189.7 168.1,188.8 168.0,187.9 167.9,187.0 167.7,186.2 167.6,185.4 167.4,184.7 167.3,183.9 167.2,183.2 167.1,182.5 166.9,181.8 166.8,181.1 166.7,180.3 166.7,179.5 166.6,178.7 166.5,177.8 166.5,176.9 166.5,176.0 166.4,175.1 166.4,174.2 166.4,173.3 166.5,172.5 166.5,171.6 166.5,170.8 166.5,170.0 166.6,169.2 166.6,168.3 166.6,167.5 166.6,166.6 166.6,165.7 166.6,164.7 166.6,163.8 166.5,162.9 166.5,162.0 166.5,161.2 166.4,160.3 166.4,159.5 166.3,158.8 166.3,158.0 166.3,157.2 166.3,156.4 166.3,155.5 166.3,154.7 166.3,153.8 166.3,152.8 166.4,151.9 166.5,151.0 166.5,150.2 166.6,149.3 166.7,148.5 166.8,147.8 166.9,147.0 167.0,146.3 167.1,145.5 167.1,144.8 167.2,144.0 167.3,143.1 167.3,142.2 167.4,141.3 167.4,140.4 167.5,139.5 167.5,138.5 167.5,137.6 167.5,136.8 167.5,135.9 167.5,135.1 167.5,134.3 167.4,133.5 167.4,132.7 167.4,131.8 167.4,131.0 167.5,130.1 167.5,129.2 167.5,128.2 167.6,127.3 167.6,126.4 167.7,125.5 167.8,124.7 167.8,123.9 167.9,123.1 168.0,122.3 168.0,121.6 168.1,120.8 168.2,120.0 168.2,119.2 168.2,118.3 168.2,117.4 168.2,116.5 168.2,115.6 168.2,114.6 168.2,113.7 168.1,112.9 168.1,112.0 168.1,111.2 168.0,110.4 167.9,109.7 167.9,108.9 167.8,108.1 167.8,107.3 167.7,106.4 167.7,105.6 167.7,104.7 167.7,103.8 167.7,102.8 167.7,101.9 167.7,101.0 167.7,100.2 167.7,99.3 167.8,98.5 167.8,97.7 167.8,96.9 167.9,96.1 167.9,95.3 167.9,94.4 167.9,93.6 167.9,92.6 167.8,91.7 167.8,90.8 167.8,89.9 167.7,89.0 167.6,88.1 167.6,87.3 167.5,86.5 167.4,85.8 167.3,85.0 167.3,84.2 167.2,83.5 167.2,82.7 167.1,81.8 167.1,81.0 167.1,80.1 167.1,79.2 167.1,78.2 167.1,77.3 167.1,76.5 167.2,75.6 167.2,74.8 167.3,74.0 167.3,73.2 167.3,72.4 167.4,71.6 167.4,71.5 167.5,71.5 167.5,71.4 167.5,71.5 167.5,71.5 167.6,71.5 167.6,71.5 167.6,71.6 167.6,71.6 167.6,71.6 167.6,71.6 167.6,71.6 167.5,71.6 167.5,71.7 167.5,71.7 167.5,71.7 167.4,71.8 167.4,71.8 167.4,71.9 167.4,72.0 167.3,71.9 167.3,71.8 167.3,71.7 167.3,71.7 167.5,71.7 167.6,71.7 167.7,71.6 167.7,71.2 167.6,70.7 167.5,70.5 167.5,70.5 167.5,70.5 167.6,70.5 167.6,70.3 167.6,70.2 167.6,70.1 167.6,70.0 167.7,70.0 167.7,69.9 167.7,69.9 167.7,70.0 167.7,70.0 167.5,70.1 167.1,70.2 166.9,70.5 166.9,70.6 166.9,70.8 166.9,71.0 167.0,71.1 167.3,71.2 167.7,71.4 168.2,71.3 168.1,70.7 167.8,69.9 167.5,69.3 167.5,68.5 167.5,68.4 167.5,68.2 167.4,68.0 167.4,67.8 167.4,67.6 167.3,67.5 167.0,67.5 166.5,67.6 165.9,68.0 165.4,68.6 164.8,69.3 164.2,69.9 163.6,70.4 163.1,70.9 162.4,71.3 161.5,71.5 161.3,71.2 161.1,70.7 161.0,70.0 160.9,69.4 160.9,69.2 160.9,69.0 160.9,68.9 160.9,68.9 160.8,68.9 160.7,69.0 160.5,69.1 160.5,69.1 160.7,69.2 160.9,69.3 160.9,69.4 160.8,69.6 160.8,69.8 160.9,70.0 161.0,70.1 161.0,70.2 161.0,70.3 161.1,70.4 161.6,70.7 162.0,71.0 162.0,71.1 161.8,71.3 161.6,71.7 161.2,72.0 160.6,72.2 160.5,71.8 160.6,71.0 160.6,70.4 160.5,70.5 160.5,70.3 160.6,69.8 160.6,69.4 160.7,69.2 160.8,69.1 161.0,69.1 161.1,69.1 161.1,69.2 161.2,69.3 161.2,69.5 161.1,69.6 161.1,69.8 161.1,69.9 161.0,69.9 161.0,69.9 161.0,70.0 161.0,70.1 161.1,70.3 161.4,70.6 161.7,71.0 161.7,71.1 161.5,71.0 161.2,71.1 160.7,71.2 160.0,71.2 158.8,71.0 157.6,71.0 157.0,71.0 157.0,70.8 157.0,70.4 157.3,69.9 157.4,69.3 157.6,68.6 157.5,68.2 157.4,68.1 157.2,68.1 157.2,68.2 157.4,68.2 157.6,68.3 157.6,68.4 157.5,68.5 157.5,68.6 157.6,68.7 157.7,68.7 157.7,68.6 157.7,68.6 157.8,68.5 158.4,69.0 158.7,69.5 158.7,69.5 158.5,69.6 158.2,69.7 157.7,69.6 157.4,69.4 157.9,68.7 158.1,68.0 158.2,67.7 157.9,67.5 157.2,67.4 157.1,67.3 157.3,66.8 157.6,66.4 157.7,66.3 157.8,66.2 157.9,66.3 158.1,66.3 158.2,66.4 158.2,66.5 158.3,66.6 158.3,66.7 158.4,66.7 158.4,66.8 158.5,66.9 158.6,67.0 158.8,67.1 159.0,67.2 159.2,67.3 159.3,67.1 159.3,67.0 159.2,66.8 159.1,66.6 158.8,66.3 158.4,66.2 158.1,66.2 157.6,66.2 156.7,66.1 156.0,66.1 155.3,65.8 155.3,65.5 155.5,65.0 155.9,64.3 156.2,63.6 156.4,62.9 156.8,62.3 157.2,61.8 157.6,61.7 157.9,61.7 158.2,61.6 158.5,61.4 158.8,61.2 159.0,61.0 159.1,60.9 159.3,60.8 159.4,60.7 159.6,60.6 159.9,60.6 160.2,60.4 160.4,60.1 160.6,59.7 160.8,59.6 160.9,60.1 161.1,60.9 161.6,61.8 162.3,62.9 163.3,64.1 164.6,65.5 166.1,66.9 167.4,68.2 168.3,68.8 168.7,68.6 169.2,68.1 169.7,67.6 170.2,67.1 170.6,66.8 171.1,66.5 171.5,66.3 171.9,66.0 172.3,65.7 172.8,65.3 173.3,65.0 174.0,64.7 174.5,64.5 175.0,64.2 175.5,63.9 176.0,63.6 176.4,63.2 176.8,62.9 177.3,62.6 177.8,62.5 178.2,62.3 178.6,61.9 179.0,61.6 179.4,61.4 179.8,61.3 180.3,61.1 180.7,60.8 181.2,60.4 181.7,60.2 182.3,60.0 182.8,59.8 183.3,59.6 183.8,59.4 184.2,59.1 184.7,58.9 185.1,58.8 185.5,58.7 186.0,58.5 186.6,58.2 187.3,58.0 187.9,57.9 188.5,57.8 189.0,57.7 189.6,57.5 190.2,57.2 190.7,57.0 191.2,56.8 191.7,56.8 192.2,56.8 192.7,56.7 193.2,56.4 193.6,56.2 194.1,56.1 194.5,56.1 195.1,56.0 195.6,55.8 196.1,55.6 196.7,55.6 197.3,55.6 197.8,55.5 198.4,55.4 198.9,55.3 199.4,55.1 199.9,55.1 200.3,55.1 200.8,55.1 201.3,55.0 202.0,54.9 202.7,54.9 203.3,55.0 203.9,55.0 204.5,55.1 205.1,55.1 205.6,55.0 206.2,54.9 206.8,54.9 207.3,55.0 207.8,55.1 208.3,55.1 208.8,55.0" fill="none" stroke="#4ea1ff" stroke-width="2.5"/>
<circle cx="82.1" cy="294.0" r="6" fill="#39d98a"/>
<text x="24.0" y="580.0" fill="#c8d2e0" font-family="monospace" font-size="14">θ=90° → left 未到達</text>
</svg>
