<svg xmlns="http://www.w3.org/2000/svg" width="598.8" height="588.0" viewBox="0 0 598.8 588.0">
<rect x="0" y="0" width="598.8" height="588.0" fill="#0e1118"/>
<rect x="24.0" y="24.0" width="550.8" height="540.0" fill="#161b26" stroke="#2a3344"/>
<rect x="19.5" y="19.5" width="9.0" height="549.0" fill="#3a4659"/>
<rect x="574.8" y="19.5" width="9.0" height="549.0" fill="#3a4659"/>
<rect x="19.5" y="15.0" width="559.8" height="9.0" fill="#3a4659"/>
<rect x="19.5" y="564.0" width="559.8" height="9.0" fill="#3a4659"/>
<line x1="82.1" y1="294.0" x2="82.1" y2="564.0" stroke="#5b6b86" stroke-dasharray="6 5"/>
<circle cx="82.1" cy="564.0" r="10" fill="none" stroke="#e0556b" stroke-width="3"/>
<polyline points="82.0,294.1 82.0,294.5 82.0,295.2 81.9,296.5 81.9,297.9 82.0,299.4 82.0,300.0 82.3,300.0 82.9,299.8 83.6,299.6 84.3,299.6 84.9,299.6 85.5,299.5 86.0,299.5 86.4,299.5 86.8,299.5 87.3,299.5 87.9,299.5 88.6,299.4 89.2,299.4 89.9,299.5 90.4,299.6 91.0,299.7 91.6,299.7 92.2,299.6 92.8,299.5 93.3,299.6 93.8,299.8 94.3,299.9 94.8,299.9 95.3,299.8 95.8,299.8 96.2,299.9 96.7,300.0 97.3,300.1 97.8,300.0 98.4,300.1 99.0,300.3 99.5,300.4 100.1,300.6 100.6,300.7 101.2,300.7 101.7,300.7 102.1,300.9 102.5,301.0 103.0,301.1 103.6,301.3 104.2,301.4 104.9,301.7 105.4,301.9 105.9,302.1 106.5,302.4 107.1,302.5 107.7,302.6 108.2,302.7 108.7,302.9 109.1,303.2 109.6,303.5 110.1,303.6 110.6,303.6 111.0,303.8 111.4,304.0 111.8,304.3 112.4,304.4 112.9,304.6 113.5,304.8 114.0,305.1 114.4,305.4 114.9,305.7 115.4,305.9 115.9,306.0 116.4,306.3 116.7,306.5 117.1,306.8 117.5,307.0 118.1,307.3 118.7,307.6 119.2,308.1 119.6,308.4 120.1,308.8 120.6,309.2 121.1,309.4 121.6,309.7 122.1,310.0 122.5,310.3 122.8,310.7 123.2,311.0 123.7,311.3 124.1,311.5 124.5,311.7 124.8,312.1 125.2,312.4 125.7,312.7 126.2,313.0 126.6,313.4 127.0,313.9 127.4,314.3 127.8,314.6 128.2,315.0 128.7,315.3 129.0,315.6 129.3,315.9 129.6,316.3 130.0,316.7 130.5,317.1 130.9,317.6 131.3,318.1 131.6,318.6 131.9,319.1 132.3,319.6 132.8,319.9 133.2,320.3 133.6,320.7 133.8,321.2 134.0,321.7 134.3,322.0 134.7,322.4 135.1,322.7 135.3,323.1 135.5,323.5 135.9,323.9 136.3,324.3 136.6,324.8 136.9,325.3 137.2,325.8 137.4,326.3 137.7,326.7 138.1,327.2 138.4,327.6 138.6,328.0 138.8,328.4 139.0,328.8 139.3,329.3 139.7,329.8 139.9,330.5 140.1,331.1 140.3,331.6 140.5,332.2 140.8,332.7 141.1,333.2 141.4,333.7 141.6,334.2 141.7,334.7 141.8,335.2 142.0,335.6 142.4,336.1 142.6,336.5 142.7,336.9 142.8,337.5 143.0,338.0 143.3,338.5 143.6,339.0 143.7,339.6 143.8,340.2 143.9,340.7 144.1,341.3 144.3,341.8 144.6,342.3 144.7,342.8 144.7,343.2 144.8,343.7 144.9,344.3 145.1,345.0 145.3,345.7 145.3,346.3 145.2,347.0 145.3,347.6 145.4,348.2 145.5,348.8 145.7,349.5 145.7,350.3 145.7,351.1 145.6,351.8 145.7,352.6 145.8,353.5 146.0,354.4 146.1,355.2 146.3,356.1 146.5,357.0 146.7,358.0 146.8,358.9 147.0,359.8 147.2,360.6 147.3,361.4 147.5,362.2 147.6,363.0 147.7,363.8 147.8,364.6 147.9,365.4 147.9,366.2 148.0,367.1 147.9,368.0 147.9,369.0 147.9,369.9 147.9,370.7 147.9,371.6 147.8,372.5 147.7,373.4 147.6,374.2 147.6,375.0 147.5,375.7 147.4,376.5 147.3,377.3 147.2,378.1 147.1,379.0 147.0,379.9 147.0,380.8 146.9,381.7 146.9,382.6 146.8,383.6 146.8,384.5 146.7,385.3 146.7,386.2 146.7,387.0 146.6,387.9 146.6,388.7 146.5,389.6 146.5,390.4 146.4,391.3 146.3,392.3 146.2,393.2 146.1,394.1 146.0,395.0 145.9,395.8 145.8,396.6 145.6,397.4 145.5,398.1 145.4,398.9 145.3,399.6 145.1,400.3 145.0,401.0 144.9,401.7 144.8,402.5 144.8,403.4 144.7,404.3 144.6,405.2 144.6,406.1 144.6,407.0 144.5,407.9 144.5,408.8 144.5,409.7 144.5,410.5 144.5,411.3 144.5,412.1 144.5,413.0 144.5,413.8 144.5,414.6 144.5,415.5 144.5,416.4 144.5,417.4 144.4,418.3 144.4,419.2 144.3,420.1 144.3,420.9 144.2,421.8 144.2,422.6 144.1,423.3 144.1,424.1 144.1,424.9 144.0,425.7 144.0,426.5 144.0,427.4 144.0,428.3 144.0,429.2 144.1,430.2 144.1,431.1 144.2,432.0 144.2,432.9 144.3,433.7 144.4,434.5 144.5,435.2 144.6,436.0 144.7,436.7 144.7,437.5 144.8,438.3 144.9,439.1 144.9,439.9 145.0,440.8 145.0,441.7 145.1,442.6 145.1,443.5 145.1,444.4 145.1,445.3 145.1,446.2 145.1,447.0 145.0,447.8 145.0,448.6 145.0,449.5 145.0,450.3 145.0,451.2 145.0,452.0 145.1,453.0 145.1,453.9 145.2,454.8 145.2,455.7 145.3,456.6 145.4,457.5 145.4,458.3 145.5,459.1 145.6,459.8 145.7,460.6 145.7,461.3 145.8,462.1 145.8,462.9 145.9,463.7 145.9,464.6 145.9,465.5 145.9,466.4 145.9,467.3 145.9,468.2 145.9,469.1 145.8,469.9 145.8,470.7 145.7,471.6 145.7,472.3 145.6,473.1 145.6,473.9 145.5,474.7 145.5,475.6 145.4,476.4 145.4,477.3 145.4,478.3 145.4,479.2 145.4,480.1 145.4,481.0 145.5,481.9 145.5,482.7 145.5,483.6 145.6,484.3 145.6,485.1 145.6,485.9 145.7,486.7 145.7,487.6 145.7,488.4 145.7,489.3 145.7,490.2 145.6,491.2 145.6,492.1 145.5,493.0 145.5,493.8 145.4,494.6 145.3,495.4 145.3,496.2 145.2,497.0 145.1,497.7 145.0,498.5 145.0,499.3 144.9,500.2 144.9,501.0 144.9,501.9 144.9,502.9 144.9,503.8 144.9,504.7 144.9,505.6 144.9,506.5 145.0,507.3 145.0,508.1 145.0,508.9 145.1,509.7 145.1,510.5 145.2,511.3 145.2,512.1 145.2,513.0 145.2,513.9 145.2,514.8 145.2,515.7 145.2,516.4 145.2,516.4 145.2,516.5 145.1,516.5 145.1,516.5 145.1,516.5 145.0,516.5 145.0,516.5 145.0,516.5 144.9,516.6 144.9,516.6 144.9,516.6 144.8,516.6 144.8,516.6 144.7,516.6 144.7,516.6 144.6,516.6 144.6,516.6 144.6,516.6 144.6,516.6 144.6,516.7 144.8,516.6 145.3,516.6 145.4,516.7 145.3,517.0 145.3,517.3 145.3,517.5 145.3,517.7 145.3,517.9 145.3,518.1 145.3,518.2 145.3,518.3 145.2,518.3 145.1,518.2 145.0,518.1 144.9,518.1 144.9,518.0 144.9,517.9 145.0,517.8 145.0,517.6 145.0,517.6 145.1,517.5 145.1,517.6 145.1,517.4 145.0,517.2 144.8,516.9 144.6,516.5 144.8,516.4 145.3,516.4 146.0,516.7 146.9,517.2 147.5,517.5 147.5,517.9 147.5,518.2 147.4,518.7 147.3,519.3 147.3,520.0 147.2,520.5 147.0,520.7 147.0,520.9 147.1,521.0 147.3,521.0 147.5,520.9 147.5,520.9 147.4,520.8 147.2,520.7 147.1,520.5 147.2,520.4 147.2,520.3 147.1,520.1 146.9,520.0 146.7,519.6 146.4,519.3 146.3,519.1 146.0,518.6 145.5,517.8 145.5,517.6 145.6,517.6 145.8,517.6 145.9,517.4 146.4,517.4 147.1,517.4 147.9,517.4 148.9,517.6 150.1,517.7 150.7,517.8 150.7,518.0 150.6,518.5 150.5,519.0 150.4,519.7 150.6,519.9 150.7,519.9 150.6,519.9 150.4,519.8 150.3,519.7 150.2,519.7 150.3,519.6 150.4,519.4 150.2,519.3 150.1,519.3 150.1,519.3 150.1,519.3 150.0,519.4 149.8,519.6 149.7,519.9 149.3,519.5 149.2,519.1 149.1,518.9 148.7,518.7 148.3,518.4 148.4,518.3 148.6,518.3 149.0,518.4 149.7,518.4 150.9,518.3 151.8,518.5 151.7,518.7 151.5,519.3 151.4,519.6 151.3,519.7 151.2,519.9 151.1,520.0 151.1,520.0 151.0,520.0 151.0,520.0 150.9,520.1 150.9,520.2 150.8,520.3 150.7,520.6 150.6,521.0 150.5,521.5 150.2,522.1 149.8,522.6 149.4,522.9 149.0,522.6 149.0,522.5 148.9,522.5 148.8,522.7 148.8,523.0 149.3,523.4 149.9,523.8 150.4,524.1 150.5,524.3 150.2,524.5 150.0,524.7 149.7,524.9 149.6,525.0 149.5,525.1 149.2,525.1 148.9,525.1 148.6,525.1 148.3,525.1 148.0,525.1 147.8,525.0 147.7,524.7 147.7,524.2 147.6,523.6 147.8,523.0 148.0,522.7 148.4,522.5 148.8,522.4 149.3,522.3 149.9,522.1 150.7,522.1 151.6,521.9 152.7,521.3 153.7,520.7 154.6,520.2 155.1,520.4 155.0,520.7 154.8,521.3 154.4,522.0 154.0,522.8 153.5,523.6 153.1,524.2 152.8,524.9 152.6,525.6 152.3,526.2 152.0,526.8 151.6,527.0 151.3,527.1 151.1,527.2 151.1,527.3 151.0,527.4 150.6,527.2 150.5,527.1 150.4,527.0 150.2,526.9 149.8,526.5 149.5,526.1 149.4,526.2 149.4,526.3 149.2,526.1 149.2,525.7 149.3,525.2 149.3,524.6 149.3,523.9 149.3,523.2 149.2,522.5 148.9,521.7 148.4,521.0 147.7,520.3 146.7,519.5 145.4,518.6 143.7,517.7 142.1,516.8 141.1,516.9 140.7,517.3 140.2,517.7 139.7,518.1 139.3,518.5 138.9,518.9 138.4,519.2 137.9,519.6 137.4,519.9 136.8,520.2 136.2,520.4 135.6,520.6 135.0,520.9 134.5,521.3 134.0,521.6 133.6,521.9 133.0,522.1 132.5,522.2 132.0,522.3 131.6,522.6 131.2,522.9 130.8,523.1 130.3,523.2 129.7,523.4 129.2,523.7 128.7,524.0 128.1,524.2 127.6,524.4 127.0,524.5 126.5,524.7 126.0,524.9 125.6,525.2 125.1,525.3 124.7,525.4 124.2,525.5 123.7,525.6 123.1,525.9 122.5,526.0 121.8,526.1 121.2,526.1 120.6,526.2 120.1,526.3 119.5,526.5 119.0,526.7 118.4,526.8 117.9,526.8 117.4,526.8 116.9,526.9 116.4,527.1 116.0,527.2 115.5,527.3 115.0,527.2 114.5,527.3 113.9,527.5 113.4,527.6 112.8,527.6 112.2,527.6 111.7,527.5 111.1,527.6 110.6,527.7 110.0,527.8 109.6,527.8 109.1,527.8 108.7,527.7 108.1,527.7 107.5,527.8 106.8,527.7 106.2,527.6 105.6,527.5 105.0,527.4 104.4,527.4 103.8,527.4 103.3,527.5 102.7,527.4 102.2,527.2 101.7,527.1 101.2,527.0 100.7,527.1" fill="none" stroke="#4ea1ff" stroke-width="2.5"/>
<circle cx="82.1" cy="294.0" r="6" fill="#39d98a"/>
<text x="24.0" y="580.0" fill="#c8d2e0" font-family="monospace" font-size="14">θ=-90° → right 未到達</text>
</svg>
