<svg xmlns="http://www.w3.org/2000/svg" width="598.8" height="588.0" viewBox="0 0 598.8 588.0">
<rect x="0" y="0" width="598.8" height="588.0" fill="#0e1118"/>
<rect x="24.0" y="24.0" width="550.8" height="540.0" fill="#161b26" stroke="#2a3344"/>
<rect x="19.5" y="19.5" width="9.0" height="549.0" fill="#3a4659"/>
<rect x="574.8" y="19.5" width="9.0" height="549.0" fill="#3a4659"/>
<rect x="19.5" y="15.0" width="559.8" height="9.0" fill="#3a4659"/>
<rect x="19.5" y="564.0" width="559.8" height="9.0" fill="#3a4659"/>
<line x1="82.1" y1="294.0" x2="574.8" y2="294.0" stroke="#5b6b86" stroke-dasharray="6 5"/>
<circle cx="574.8" cy="294.0" r="10" fill="none" stroke="#e0556b" stroke-width="3"/>
<polyline points="82.0,294.2 82.0,294.9 82.0,295.7 82.1,296.7 82.2,297.8 82.5,298.9 83.0,298.9 83.7,298.8 84.5,298.7 85.4,298.6 86.2,298.5 87.1,298.4 88.0,298.3 88.9,298.2 89.8,298.2 90.7,298.1 91.6,298.0 92.6,298.0 93.6,298.0 94.6,298.0 95.5,298.0 96.5,298.0 97.5,298.1 98.4,298.1 99.3,298.2 100.2,298.3 101.2,298.5 102.1,298.7 103.0,298.8 103.9,299.1 104.8,299.3 105.7,299.3 106.7,299.4 107.7,299.4 108.6,299.4 109.6,299.4 110.5,299.3 111.4,299.3 112.3,299.3 113.2,299.2 114.0,299.2 114.9,299.1 115.8,299.1 116.7,299.1 117.6,299.1 118.5,299.1 119.5,299.1 120.4,299.2 121.4,299.3 122.4,299.3 123.4,299.4 124.3,299.6 125.2,299.7 126.1,299.8 127.0,300.0 127.9,300.2 128.8,300.4 129.7,300.7 130.7,300.9 131.6,301.1 132.6,301.2 133.6,301.3 134.5,301.3 135.5,301.4 136.4,301.4 137.4,301.5 138.3,301.5 139.2,301.5 140.0,301.5 140.9,301.5 141.8,301.5 142.6,301.5 143.5,301.6 144.5,301.6 145.4,301.7 146.4,301.8 147.3,301.9 148.3,302.0 149.3,302.2 150.2,302.3 151.2,302.5 152.1,302.7 153.0,302.9 153.9,303.1 154.8,303.3 155.7,303.6 156.6,303.9 157.5,304.2 158.5,304.4 159.4,304.5 160.4,304.7 161.3,304.8 162.3,304.9 163.3,305.0 164.2,305.1 165.1,305.1 166.0,305.2 166.8,305.2 167.7,305.3 168.6,305.3 169.4,305.4 170.3,305.5 171.3,305.6 172.2,305.8 173.2,305.9 174.1,306.1 175.1,306.2 176.1,306.4 177.0,306.6 177.9,306.9 178.8,307.1 179.7,307.3 180.6,307.6 181.5,307.9 182.4,308.2 183.3,308.5 184.2,308.8 185.1,309.0 186.1,309.2 187.0,309.4 188.0,309.6 189.0,309.7 189.9,309.8 190.8,310.0 191.7,310.0 192.6,310.1 193.5,310.2 194.3,310.3 195.2,310.4 196.1,310.6 197.0,310.7 197.9,310.8 198.8,311.0 199.8,311.2 200.8,311.4 201.7,311.6 202.7,311.9 203.6,312.1 204.5,312.4 205.4,312.7 206.3,312.9 207.1,313.2 208.0,313.5 208.9,313.9 209.8,314.2 210.7,314.5 211.7,314.8 212.6,315.0 213.6,315.2 214.5,315.4 215.5,315.6 216.4,315.8 217.3,315.9 218.2,316.0 219.1,316.2 219.9,316.3 220.8,316.4 221.7,316.6 222.6,316.7 223.5,316.9 224.4,317.1 225.3,317.3 226.3,317.5 227.2,317.8 228.2,318.0 229.1,318.3 230.0,318.6 230.9,318.9 231.8,319.2 232.6,319.5 233.5,319.8 234.4,320.1 235.3,320.5 236.2,320.8 237.2,321.1 238.1,321.4 239.1,321.7 240.0,321.9 241.0,322.2 241.9,322.3 242.9,322.5 243.8,322.7 244.6,322.8 245.5,323.0 246.4,323.2 247.2,323.3 248.1,323.5 249.0,323.6 249.9,323.8 250.8,324.1 251.7,324.3 252.7,324.6 253.6,324.8 254.6,325.1 255.5,325.4 256.4,325.7 257.3,326.1 258.1,326.4 259.0,326.7 259.8,327.0 260.7,327.4 261.6,327.8 262.5,328.1 263.4,328.4 264.4,328.8 265.3,329.0 266.3,329.3 267.2,329.5 268.2,329.8 269.1,330.0 270.0,330.1 270.9,330.3 271.7,330.5 272.6,330.7 273.4,330.8 274.3,331.0 275.2,331.2 276.1,331.5 277.0,331.7 278.0,332.0 278.9,332.3 279.8,332.6 280.8,332.9 281.7,333.2 282.6,333.5 283.4,333.8 284.3,334.2 285.1,334.5 286.0,334.9 286.8,335.3 287.7,335.6 288.6,336.0 289.5,336.3 290.5,336.6 291.4,336.9 292.4,337.2 293.3,337.5 294.3,337.7 295.2,337.9 296.1,338.1 296.9,338.3 297.8,338.5 298.6,338.7 299.5,338.9 300.4,339.1 301.2,339.3 302.2,339.5 303.1,339.8 304.0,340.1 305.0,340.4 305.9,340.7 306.8,341.0 307.7,341.4 308.6,341.7 309.4,342.1 310.3,342.4 311.1,342.8 312.0,343.1 312.8,343.5 313.7,343.9 314.6,344.2 315.5,344.6 316.5,344.9 317.4,345.2 318.4,345.5 319.3,345.8 320.2,346.0 321.2,346.2 322.0,346.4 322.9,346.6 323.7,346.8 324.6,347.0 325.4,347.2 326.3,347.5 327.2,347.7 328.1,348.0 329.0,348.2 329.9,348.5 330.9,348.9 331.8,349.2 332.7,349.5 333.6,349.9 334.5,350.2 335.3,350.6 336.2,351.0 337.0,351.3 337.8,351.7 338.7,352.1 339.6,352.5 340.5,352.8 341.4,353.2 342.3,353.5 343.3,353.9 344.2,354.1 345.2,354.4 346.1,354.7 347.0,354.9 347.9,355.1 348.7,355.3 349.5,355.5 350.4,355.7 351.2,355.9 352.1,356.2 353.0,356.4 353.9,356.7 354.8,357.0 355.8,357.3 356.7,357.7 357.6,358.0 358.5,358.4 359.4,358.7 360.3,359.1 361.1,359.4 361.9,359.8 362.8,360.2 363.6,360.6 364.4,361.0 365.3,361.4 366.2,361.7 367.2,362.1 368.1,362.4 369.1,362.8 370.0,363.1 370.9,363.3 371.8,363.6 372.7,363.8 373.6,364.0 374.4,364.2 375.3,364.5 376.1,364.7 377.0,364.9 377.8,365.1 378.7,365.4 379.6,365.7 380.6,366.0 381.5,366.3 382.4,366.7 383.4,367.0 384.3,367.4 385.1,367.8 386.0,368.1 386.8,368.5 387.6,368.9 388.5,369.3 389.3,369.7 390.1,370.1 391.0,370.5 391.9,370.8 392.9,371.2 393.8,371.6 394.7,371.9 395.7,372.2 396.6,372.5 397.5,372.7 398.4,372.9 399.3,373.2 400.1,373.4 400.9,373.6 401.8,373.8 402.6,374.1 403.5,374.3 404.4,374.6 405.3,374.9 406.2,375.2 407.2,375.6 408.1,375.9 409.0,376.3 409.9,376.6 410.8,377.0 411.6,377.4 412.4,377.8 413.2,378.2 414.1,378.6 414.9,379.0 415.8,379.4 416.7,379.8 417.6,380.1 418.5,380.5 419.4,380.9 420.4,381.2 421.3,381.5 422.2,381.8 423.1,382.0 424.0,382.3 424.8,382.5 425.7,382.7 426.5,382.9 427.4,383.2 428.2,383.4 429.1,383.7 430.0,384.0 430.9,384.3 431.8,384.6 432.8,384.9 433.7,385.3 434.6,385.7 435.5,386.1 436.3,386.4 437.2,386.8 438.0,387.2 438.8,387.6 439.6,388.0 440.5,388.4 441.3,388.8 442.2,389.2 443.1,389.6 444.1,390.0 445.0,390.3 445.9,390.6 446.9,390.9 447.8,391.2 448.7,391.5 449.5,391.7 450.4,391.9 451.2,392.2 452.1,392.4 452.9,392.6 453.8,392.9 454.6,393.2 455.5,393.5 456.4,393.8 457.4,394.1 458.3,394.5 459.2,394.8 460.1,395.2 461.0,395.6 461.9,396.0 462.7,396.4 463.5,396.8 464.3,397.2 465.1,397.6 466.0,398.0 466.8,398.4 467.7,398.8 468.6,399.2 469.6,399.6 470.5,399.9 471.4,400.2 472.4,400.5 473.3,400.8 474.2,401.1 475.0,401.3 475.9,401.5 476.7,401.8 477.5,402.0 478.4,402.2 479.3,402.5 480.1,402.8 481.0,403.1 482.0,403.4 482.9,403.8 483.8,404.1 484.7,404.5 485.6,404.9 486.5,405.3 487.3,405.7 488.2,406.1 489.0,406.5 489.8,406.9 490.6,407.3 491.4,407.7 492.3,408.1 493.2,408.5 494.1,408.9 495.0,409.3 496.0,409.6 496.9,409.9 497.8,410.2 498.8,410.5 499.6,410.8 500.5,411.0 501.3,411.2 502.2,411.5 503.0,411.7 503.8,412.0 504.7,412.2 505.6,412.5 506.5,412.8 507.4,413.2 508.3,413.5 509.3,413.9 510.2,414.3 511.1,414.6 511.9,415.0 512.8,415.4 513.6,415.8 514.4,416.2 515.2,416.6 516.0,417.0 516.9,417.5 517.7,417.9 518.6,418.3 519.6,418.7 520.5,419.0 521.0,419.2" fill="none" stroke="#4ea1ff" stroke-width="2.5"/>
<circle cx="82.1" cy="294.0" r="6" fill="#39d98a"/>
<text x="24.0" y="580.0" fill="#c8d2e0" font-family="monospace" font-size="14">θ=0° → front 到達✓</text>
</svg>
