<svg xmlns="http://www.w3.org/2000/svg" width="598.8" height="588.0" viewBox="0 0 598.8 588.0">
<rect x="0" y="0" width="598.8" height="588.0" fill="#0e1118"/>
<rect x="24.0" y="24.0" width="550.8" height="540.0" fill="#161b26" stroke="#2a3344"/>
<rect x="19.5" y="19.5" width="9.0" height="549.0" fill="#3a4659"/>
<rect x="574.8" y="19.5" width="9.0" height="549.0" fill="#3a4659"/>
<rect x="19.5" y="15.0" width="559.8" height="9.0" fill="#3a4659"/>
<rect x="19.5" y="564.0" width="559.8" height="9.0" fill="#3a4659"/>
<line x1="82.1" y1="294.0" x2="574.8" y2="294.0" stroke="#5b6b86" stroke-dasharray="6 5"/>
<circle cx="574.8" cy="294.0" r="10" fill="none" stroke="#e0556b" stroke-width="3"/>
<polyline points="82.0,294.1 82.0,294.8 82.1,295.5 82.1,296.3 82.3,297.2 82.6,297.7 83.2,297.6 83.9,297.6 84.6,297.5 85.4,297.5 86.2,297.5 87.0,297.4 87.8,297.4 88.6,297.3 89.4,297.3 90.2,297.2 91.0,297.2 91.9,297.2 92.8,297.2 93.8,297.2 94.7,297.3 95.6,297.3 96.4,297.4 97.3,297.4 98.1,297.5 98.9,297.5 99.6,297.6 100.4,297.7 101.2,297.7 102.0,297.8 102.8,297.8 103.7,297.8 104.6,297.8 105.5,297.8 106.4,297.8 107.4,297.8 108.3,297.8 109.1,297.8 109.9,297.7 110.7,297.7 111.5,297.6 112.2,297.6 113.0,297.5 113.8,297.5 114.6,297.5 115.4,297.5 116.3,297.5 117.2,297.5 118.2,297.5 119.1,297.5 120.0,297.6 120.8,297.6 121.7,297.7 122.4,297.7 123.2,297.8 124.0,297.9 124.8,297.9 125.5,298.0 126.3,298.0 127.2,298.1 128.1,298.1 129.0,298.1 129.9,298.1 130.9,298.1 131.8,298.1 132.6,298.1 133.5,298.0 134.3,298.0 135.1,297.9 135.8,297.9 136.6,297.8 137.4,297.8 138.2,297.8 139.0,297.8 139.8,297.7 140.7,297.7 141.6,297.8 142.6,297.8 143.5,297.8 144.4,297.9 145.2,297.9 146.0,298.0 146.8,298.0 147.6,298.1 148.4,298.2 149.1,298.2 149.9,298.3 150.7,298.3 151.6,298.3 152.5,298.4 153.4,298.4 154.3,298.4 155.3,298.4 156.2,298.4 157.0,298.3 157.9,298.3 158.7,298.3 159.5,298.2 160.2,298.2 161.0,298.1 161.7,298.1 162.5,298.1 163.4,298.0 164.2,298.0 165.1,298.0 166.0,298.0 167.0,298.1 167.9,298.1 168.8,298.2 169.6,298.2 170.4,298.3 171.2,298.3 172.0,298.4 172.7,298.5 173.5,298.5 174.3,298.6 175.1,298.6 176.0,298.6 176.9,298.7 177.8,298.7 178.7,298.7 179.7,298.7 180.6,298.6 181.4,298.6 182.3,298.6 183.1,298.5 183.8,298.5 184.6,298.4 185.3,298.4 186.1,298.4 186.9,298.3 187.8,298.3 188.6,298.3 189.5,298.3 190.4,298.3 191.4,298.4 192.3,298.4 193.1,298.5 194.0,298.5 194.8,298.6 195.6,298.6 196.3,298.7 197.1,298.8 197.9,298.8 198.7,298.9 199.5,298.9 200.4,298.9 201.3,299.0 202.2,299.0 203.1,299.0 204.1,299.0 205.0,298.9 205.8,298.9 206.6,298.9 207.4,298.8 208.2,298.8 209.0,298.7 209.7,298.7 210.5,298.7 211.3,298.6 212.1,298.6 213.0,298.6 213.9,298.6 214.9,298.6 215.8,298.7 216.7,298.7 217.5,298.8 218.4,298.8 219.2,298.9 219.9,298.9 220.7,299.0 221.5,299.1 222.3,299.1 223.1,299.2 223.9,299.2 224.8,299.2 225.7,299.3 226.6,299.3 227.5,299.3 228.5,299.2 229.4,299.2 230.2,299.2 231.0,299.1 231.8,299.1 232.6,299.1 233.3,299.0 234.1,299.0 234.9,298.9 235.7,298.9 236.5,298.9 237.4,298.9 238.3,298.9 239.3,298.9 240.2,299.0 241.1,299.0 241.9,299.1 242.7,299.1 243.5,299.2 244.3,299.3 245.1,299.3 245.8,299.4 246.6,299.4 247.4,299.5 248.3,299.5 249.2,299.5 250.1,299.6 251.0,299.6 252.0,299.6 252.9,299.5 253.7,299.5 254.6,299.5 255.4,299.4 256.2,299.4 256.9,299.3 257.7,299.3 258.5,299.3 259.3,299.2 260.1,299.2 260.9,299.2 261.8,299.2 262.7,299.2 263.7,299.2 264.6,299.3 265.5,299.3 266.3,299.4 267.1,299.4 267.9,299.5 268.7,299.6 269.5,299.6 270.2,299.7 271.0,299.7 271.8,299.8 272.7,299.8 273.6,299.8 274.5,299.9 275.4,299.9 276.4,299.9 277.3,299.8 278.1,299.8 279.0,299.8 279.8,299.7 280.6,299.7 281.3,299.6 282.1,299.6 282.8,299.6 283.6,299.5 284.5,299.5 285.3,299.5 286.2,299.5 287.1,299.5 288.1,299.6 289.0,299.6 289.8,299.6 290.7,299.7 291.5,299.8 292.3,299.8 293.1,299.9 293.8,299.9 294.6,300.0 295.4,300.1 296.2,300.1 297.1,300.1 298.0,300.2 298.9,300.2 299.8,300.2 300.8,300.2 301.7,300.1 302.5,300.1 303.4,300.1 304.2,300.0 304.9,300.0 305.7,299.9 306.4,299.9 307.2,299.9 308.0,299.8 308.8,299.8 309.7,299.8 310.6,299.8 311.5,299.8 312.5,299.9 313.4,299.9 314.2,300.0 315.1,300.0 315.9,300.1 316.7,300.1 317.4,300.2 318.2,300.3 319.0,300.3 319.8,300.4 320.6,300.4 321.5,300.4 322.4,300.5 323.3,300.5 324.2,300.5 325.2,300.5 326.1,300.4 326.9,300.4 327.7,300.4 328.5,300.3 329.3,300.3 330.1,300.2 330.8,300.2 331.6,300.2 332.4,300.1 333.2,300.1 334.1,300.1 335.0,300.1 335.9,300.2 336.9,300.2 337.8,300.2 338.6,300.3 339.5,300.3 340.3,300.4 341.0,300.5 341.8,300.5 342.6,300.6 343.3,300.6 344.1,300.7 345.0,300.7 345.9,300.8 346.8,300.8 347.7,300.8 348.6,300.8 349.6,300.8 350.4,300.7 351.3,300.7 352.1,300.7 352.9,300.6 353.7,300.6 354.4,300.5 355.2,300.5 356.0,300.5 356.8,300.4 357.6,300.4 358.5,300.4 359.4,300.4 360.4,300.5 361.3,300.5 362.2,300.5 363.0,300.6 363.8,300.7 364.6,300.7 365.4,300.8 366.2,300.8 366.9,300.9 367.7,301.0 368.5,301.0 369.4,301.0 370.3,301.1 371.2,301.1 372.1,301.1 373.0,301.1 374.0,301.1 374.8,301.0 375.7,301.0 376.5,301.0 377.3,300.9 378.0,300.9 378.8,300.8 379.6,300.8 380.3,300.8 381.2,300.8 382.0,300.7 382.9,300.8 383.8,300.8 384.8,300.8 385.7,300.8 386.5,300.9 387.4,300.9 388.2,301.0 389.0,301.0 389.8,301.1 390.5,301.2 391.3,301.2 392.1,301.3 392.9,301.3 393.8,301.4 394.7,301.4 395.6,301.4 396.5,301.4 397.4,301.4 398.4,301.4 399.2,301.4 400.1,301.3 400.9,301.3 401.6,301.2 402.4,301.2 403.2,301.2 403.9,301.1 404.7,301.1 405.6,301.1 406.4,301.1 407.3,301.1 408.2,301.1 409.2,301.1 410.1,301.2 410.9,301.2 411.8,301.3 412.6,301.3 413.4,301.4 414.2,301.4 414.9,301.5 415.7,301.6 416.5,301.6 417.3,301.7 418.2,301.7 419.1,301.7 420.0,301.7 420.9,301.7 421.8,301.7 422.8,301.7 423.6,301.7 424.4,301.6 425.2,301.6 426.0,301.6 426.8,301.5 427.5,301.5 428.3,301.4 429.1,301.4 429.9,301.4 430.8,301.4 431.7,301.4 432.6,301.4 433.6,301.4 434.5,301.5 435.3,301.5 436.2,301.6 437.0,301.6 437.8,301.7 438.5,301.8 439.3,301.8 440.1,301.9 440.9,302.0 441.7,302.0 442.6,302.0 443.5,302.0 444.4,302.1 445.3,302.1 446.3,302.0 447.1,302.0 448.0,302.0 448.8,302.0 449.6,301.9 450.4,301.9 451.1,301.8 451.9,301.8 452.7,301.8 453.5,301.7 454.3,301.7 455.2,301.7 456.1,301.7 457.0,301.7 458.0,301.8 458.9,301.8 459.7,301.9 460.6,301.9 461.4,302.0 462.1,302.1 462.9,302.1 463.7,302.2 464.4,302.2 465.2,302.3 466.1,302.3 467.0,302.4 467.9,302.4 468.8,302.4 469.7,302.4 470.7,302.4 471.5,302.3 472.4,302.3 473.2,302.3 474.0,302.2 474.8,302.2 475.5,302.1 476.3,302.1 477.1,302.1 477.9,302.1 478.7,302.0 479.6,302.0 480.5,302.1 481.4,302.1 482.4,302.1 483.2,302.2 484.1,302.2 484.9,302.3 485.7,302.3 486.5,302.4 487.3,302.5 488.0,302.5 488.8,302.6 489.6,302.6 490.5,302.7 491.4,302.7 492.3,302.7 493.2,302.7 494.1,302.7 495.1,302.7 495.9,302.7 496.8,302.6 497.6,302.6 498.4,302.6 499.1,302.5 499.9,302.5 500.7,302.4 501.4,302.4 502.3,302.4 503.1,302.4 504.0,302.4 504.9,302.4 505.8,302.4 506.8,302.5 507.6,302.5 508.5,302.6 509.3,302.6 510.1,302.7 510.9,302.7 511.6,302.8 512.4,302.9 513.2,302.9 514.0,303.0 514.9,303.0 515.8,303.0 516.7,303.0 517.6,303.0 518.5,303.0 519.4,303.0 520.3,303.0 521.2,303.0 522.0,302.9 522.7,302.9 523.5,302.8 524.3,302.8 525.0,302.8 525.8,302.7 526.6,302.7 527.4,302.7 527.6,302.7 527.6,302.6 527.7,302.6 527.6,302.6 527.6,302.6 527.6,302.6 527.6,302.6 527.6,302.7 527.5,302.7 527.5,302.7 527.5,302.8 527.5,302.8 527.4,302.8 527.4,302.9 527.3,302.9 527.2,302.9 527.2,303.0 527.1,303.0 527.1,303.0 527.1,303.0 527.1,303.0 527.1,303.0 527.1,303.0 527.2,302.9 527.3,302.9 527.4,302.9 527.6,302.9 527.7,302.9 527.8,302.8 527.9,302.8 528.0,302.8 528.0,302.8 528.0,302.8 528.0,302.8 528.0,302.8 528.0,302.8 528.0,302.8 527.9,302.9 527.9,302.9 527.8,303.0 527.7,303.0 527.6,303.0 527.5,303.1 527.4,303.1 527.2,303.1 527.1,303.1 527.0,303.2 527.0,303.2 527.0,303.2 527.0,303.1 527.1,303.1 527.3,303.1 527.5,303.1 527.7,303.1 528.0,303.1 528.2,303.1 528.5,303.2 528.8,303.2 529.0,303.2 529.2,303.2 529.3,303.2 529.4,303.2 529.4,303.2 529.4,303.2 529.4,303.3 529.4,303.3 529.3,303.3 529.2,303.4 529.1,303.4 528.9,303.4 528.7,303.5 528.5,303.5 528.3,303.5 528.2,303.5 528.0,303.5 527.9,303.5 527.9,303.5 528.0,303.5 528.2,303.5 528.5,303.6 528.8,303.6 529.2,303.7 529.6,303.7 530.0,303.8 530.5,303.9 530.9,304.0 531.3,304.1 531.7,304.2 532.0,304.2 532.3,304.3 532.5,304.4 532.7,304.4 532.8,304.5 532.8,304.5 532.7,304.6 532.7,304.6 532.6,304.7 532.5,304.7 532.3,304.7 532.2,304.7 532.0,304.7 531.9,304.7 531.8,304.8 531.9,304.9 532.0,305.0 532.3,305.1 532.6,305.3 533.0,305.4 533.5,305.6 534.0,305.8 534.6,306.0 535.1,306.2 535.7,306.4 536.3,306.7" fill="none" stroke="#4ea1ff" stroke-width="2.5"/>
<circle cx="82.1" cy="294.0" r="6" fill="#39d98a"/>
<text x="24.0" y="580.0" fill="#c8d2e0" font-family="monospace" font-size="14">θ=0° → front 未到達</text>
</svg>
