<svg xmlns="http://www.w3.org/2000/svg" width="598.8" height="588.0" viewBox="0 0 598.8 588.0">
<rect x="0" y="0" width="598.8" height="588.0" fill="#0e1118"/>
<rect x="24.0" y="24.0" width="550.8" height="540.0" fill="#161b26" stroke="#2a3344"/>
<rect x="19.5" y="19.5" width="9.0" height="549.0" fill="#3a4659"/>
<rect x="574.8" y="19.5" width="9.0" height="549.0" fill="#3a4659"/>
<rect x="19.5" y="15.0" width="559.8" height="9.0" fill="#3a4659"/>
<rect x="19.5" y="564.0" width="559.8" height="9.0" fill="#3a4659"/>
<line x1="82.1" y1="294.0" x2="82.1" y2="564.0" stroke="#5b6b86" stroke-dasharray="6 5"/>
<circle cx="82.1" cy="564.0" r="10" fill="none" stroke="#e0556b" stroke-width="3"/>
<polyline points="82.0,294.1 82.0,294.9 82.1,295.8 82.2,296.7 82.3,297.8 82.5,298.8 83.1,298.8 83.8,298.8 84.6,298.7 85.5,298.6 86.3,298.5 87.2,298.4 88.1,298.3 89.0,298.3 89.9,298.2 90.8,298.1 91.7,298.1 92.7,298.0 93.7,298.0 94.6,298.0 95.6,298.1 96.6,298.1 97.6,298.2 98.5,298.2 99.4,298.3 100.3,298.5 101.2,298.6 102.1,298.7 103.1,298.8 104.0,298.9 105.0,299.0 106.0,299.1 107.0,299.1 107.9,299.1 108.9,299.1 109.9,299.1 110.8,299.1 111.8,299.1 112.6,299.1 113.5,299.1 114.4,299.1 115.3,299.1 116.1,299.1 117.0,299.1 117.9,299.1 118.8,299.2 119.8,299.2 120.7,299.3 121.7,299.4 122.7,299.5 123.6,299.7 124.6,299.8 125.5,300.0 126.4,300.2 127.3,300.4 128.2,300.6 129.1,300.8 130.0,301.0 131.0,301.2 131.9,301.4 132.9,301.5 133.9,301.6 134.9,301.7 135.9,301.8 136.8,301.9 137.7,302.0 138.7,302.0 139.5,302.1 140.4,302.2 141.3,302.2 142.1,302.3 143.0,302.4 143.9,302.5 144.8,302.6 145.7,302.7 146.6,302.9 147.6,303.0 148.5,303.2 149.4,303.4 150.4,303.6 151.3,303.9 152.2,304.1 153.1,304.4 154.0,304.7 154.8,305.0 155.7,305.3 156.6,305.6 157.6,305.9 158.6,306.2 159.5,306.4 160.5,306.6 161.5,306.8 162.5,307.0 163.4,307.2 164.3,307.4 165.2,307.5 166.1,307.6 166.9,307.8 167.8,307.9 168.6,308.1 169.5,308.3 170.4,308.4 171.2,308.6 172.1,308.8 173.1,308.9 174.0,309.1 174.8,309.4 175.7,309.6 176.6,310.0 177.5,310.3 178.4,310.6 179.3,311.0 180.1,311.4 180.9,311.8 181.8,312.2 182.7,312.6 183.6,313.0 184.5,313.4 185.5,313.8 186.4,314.1 187.4,314.4 188.3,314.7 189.2,315.0 190.1,315.2 191.0,315.5 191.8,315.7 192.7,315.9 193.5,316.1 194.3,316.3 195.1,316.6 196.0,316.8 196.8,317.1 197.7,317.3 198.6,317.4 199.5,317.6 200.3,318.0 201.1,318.4 202.0,318.8 202.9,319.2 203.7,319.6 204.5,320.1 205.3,320.5 206.1,321.0 206.9,321.5 207.7,322.0 208.5,322.5 209.3,323.1 210.2,323.6 211.2,324.1 212.1,324.5 213.0,324.8 213.9,325.2 214.7,325.5 215.5,325.8 216.3,326.1 217.1,326.4 217.9,326.7 218.7,327.0 219.5,327.3 220.3,327.6 221.2,328.0 222.0,328.1 222.8,328.3 223.6,328.7 224.4,329.1 225.3,329.6 226.1,330.1 226.9,330.6 227.7,331.1 228.5,331.6 229.2,332.2 229.9,332.7 230.6,333.3 231.3,333.9 232.0,334.5 232.8,335.1 233.6,335.7 234.5,336.3 235.4,336.7 236.2,337.2 237.1,337.6 237.9,338.0 238.7,338.4 239.4,338.8 240.2,339.1 240.9,339.5 241.7,339.9 242.4,340.2 243.2,340.7 244.0,340.9 244.8,341.2 245.6,341.5 246.4,341.9 247.1,342.4 247.9,342.9 248.6,343.5 249.4,344.1 250.1,344.7 250.8,345.3 251.5,345.9 252.1,346.6 252.7,347.2 253.3,347.9 253.9,348.5 254.6,349.2 255.4,349.8 256.2,350.5 257.1,351.1 257.9,351.6 258.6,352.1 259.4,352.6 260.1,353.0 260.9,353.5 261.6,353.9 262.3,354.3 263.0,354.8 263.7,355.2 264.4,355.7 265.2,356.0 265.9,356.3 266.7,356.7 267.4,357.2 268.1,357.8 268.8,358.4 269.5,359.1 270.2,359.7 270.9,360.4 271.5,361.1 272.1,361.8 272.5,362.5 273.0,363.2 273.5,363.9 274.1,364.6 274.7,365.3 275.5,366.0 276.2,366.8 277.0,367.4 277.8,368.1 278.5,368.6 279.2,369.2 279.9,369.7 280.5,370.2 281.2,370.7 281.9,371.2 282.5,371.7 283.2,372.3 283.9,372.7 284.6,373.1 285.3,373.5 286.0,373.9 286.6,374.5 287.3,375.2 287.9,375.9 288.6,376.6 289.2,377.3 289.8,378.1 290.3,378.8 290.7,379.6 291.1,380.3 291.5,381.0 291.9,381.8 292.4,382.5 293.0,383.3 293.7,384.1 294.4,384.9 295.1,385.7 295.8,386.4 296.4,387.0 297.1,387.6 297.7,388.3 298.3,388.8 298.9,389.4 299.5,389.9 300.1,390.5 300.7,391.1 301.4,391.5 302.1,392.0 302.7,392.4 303.3,393.0 303.9,393.7 304.5,394.3 305.0,395.1 305.6,395.9 306.1,396.7 306.6,397.5 307.0,398.3 307.3,399.1 307.6,399.8 307.9,400.5 308.3,401.3 308.8,402.2 309.3,403.0 309.9,403.9 310.5,404.8 311.1,405.6 311.7,406.3 312.3,407.0 312.9,407.7 313.5,408.4 314.0,409.0 314.5,409.6 315.1,410.2 315.6,410.9 316.2,411.4 316.8,411.9 317.4,412.4 318.0,412.9 318.6,413.6 319.1,414.3 319.5,415.0 320.0,415.8 320.5,416.6 320.9,417.5 321.3,418.3 321.6,419.2 321.8,420.0 322.0,420.7 322.3,421.5 322.6,422.4 323.0,423.2 323.4,424.1 323.9,425.1 324.4,426.0 325.0,426.9 325.5,427.7 326.0,428.5 326.5,429.2 327.0,429.9 327.5,430.6 328.0,431.3 328.4,431.9 328.9,432.6 329.5,433.2 330.0,433.7 330.5,434.2 331.1,434.9 331.6,435.6 332.0,436.4 332.4,437.1 332.8,438.0 333.1,438.8 333.5,439.7 333.8,440.6 333.9,441.5 334.1,442.3 334.2,443.1 334.4,443.9 334.6,444.8 334.9,445.7 335.3,446.6 335.7,447.6 336.1,448.6 336.6,449.5 337.1,450.4 337.5,451.2 337.9,452.0 338.3,452.7 338.7,453.4 339.1,454.1 339.5,454.9 340.0,455.6 340.5,456.2 340.9,456.7 341.4,457.3 341.9,458.0 342.3,458.8 342.6,459.6 342.9,460.4 343.2,461.3 343.5,462.2 343.7,463.1 343.9,464.0 344.0,464.9 344.0,465.7 344.1,466.5 344.2,467.3 344.4,468.2 344.6,469.2 344.9,470.2 345.2,471.2 345.5,472.3 345.9,473.2 346.3,474.1 346.6,475.0 347.0,475.8 347.3,476.5 347.6,477.3 348.0,478.0 348.3,478.8 348.7,479.5 349.1,480.1 349.5,480.8 349.9,481.4 350.3,482.2 350.6,483.0 350.9,483.8 351.1,484.7 351.3,485.6 351.5,486.5 351.6,487.5 351.7,488.4 351.6,489.2 351.6,490.0 351.6,490.8 351.7,491.7 351.8,492.6 351.9,493.6 352.1,494.7 352.3,495.7 352.6,496.8 352.8,497.8 353.1,498.7 353.4,499.5 353.7,500.4 353.9,501.2 354.2,501.9 354.4,502.7 354.7,503.5 355.0,504.2 355.4,504.9 355.7,505.6 356.1,506.3 356.4,507.1 356.6,508.0 356.7,508.8 356.9,509.7 356.9,510.2" fill="none" stroke="#4ea1ff" stroke-width="2.5"/>
<circle cx="82.1" cy="294.0" r="6" fill="#39d98a"/>
<text x="24.0" y="580.0" fill="#c8d2e0" font-family="monospace" font-size="14">θ=-90° → right 到達✓</text>
</svg>
