<svg xmlns="http://www.w3.org/2000/svg" width="598.8" height="588.0" viewBox="0 0 598.8 588.0">
<rect x="0" y="0" width="598.8" height="588.0" fill="#0e1118"/>
<rect x="24.0" y="24.0" width="550.8" height="540.0" fill="#161b26" stroke="#2a3344"/>
<rect x="19.5" y="19.5" width="9.0" height="549.0" fill="#3a4659"/>
<rect x="574.8" y="19.5" width="9.0" height="549.0" fill="#3a4659"/>
<rect x="19.5" y="15.0" width="559.8" height="9.0" fill="#3a4659"/>
<rect x="19.5" y="564.0" width="559.8" height="9.0" fill="#3a4659"/>
<line x1="82.1" y1="294.0" x2="82.1" y2="24.0" stroke="#5b6b86" stroke-dasharray="6 5"/>
<circle cx="82.1" cy="24.0" r="10" fill="none" stroke="#e0556b" stroke-width="3"/>
<polyline points="82.0,294.1 82.0,294.6 82.0,295.2 82.1,295.8 82.2,296.5 82.4,296.6 82.7,296.7 83.2,296.7 83.6,296.8 84.1,296.9 84.6,296.8 85.2,296.7 85.7,296.6 86.2,296.3 86.6,296.1 87.1,295.9 87.5,295.6 87.9,295.5 88.2,295.4 88.4,295.4 88.7,295.5 89.0,295.6 89.4,295.6 89.7,295.6 90.1,295.7 90.5,295.7 91.0,295.6 91.4,295.6 91.8,295.6 92.3,295.7 92.8,295.6 93.3,295.8 94.0,295.9 94.6,296.1 95.2,296.4 95.7,296.5 96.1,296.7 96.3,297.1 96.6,297.4 97.0,297.5 97.4,297.6 97.8,297.5 98.2,297.3 98.7,297.1 99.2,296.9 99.6,296.7 100.0,296.6 100.3,296.6 100.6,296.6 100.9,296.7 101.3,296.8 101.6,296.8 102.0,296.8 102.5,296.8 102.9,296.8 103.4,296.8 103.8,296.7 104.2,296.7 104.7,296.8 105.2,296.7 105.7,296.9 106.4,297.0 107.0,297.2 107.6,297.4 108.1,297.5 108.4,297.7 108.7,298.1 109.0,298.4 109.4,298.5 109.8,298.5 110.2,298.4 110.6,298.1 111.1,297.9 111.6,297.7 112.0,297.5 112.4,297.4 112.7,297.4 113.0,297.5 113.3,297.5 113.6,297.6 114.0,297.6 114.4,297.6 114.8,297.6 115.3,297.5 115.7,297.4 116.1,297.4 116.6,297.4 117.1,297.4 117.6,297.4 118.2,297.5 118.9,297.6 119.5,297.8 120.0,297.9 120.5,298.0 120.8,298.3 121.1,298.7 121.4,298.9 121.8,299.0 122.2,298.9 122.6,298.8 123.0,298.5 123.5,298.3 123.9,298.0 124.4,297.9 124.7,297.8 125.0,297.8 125.3,297.8 125.6,297.9 126.0,297.9 126.4,297.9 126.8,297.9 127.2,297.8 127.6,297.7 128.1,297.7 128.5,297.6 128.9,297.6 129.4,297.6 130.0,297.6 130.6,297.6 131.3,297.7 131.9,297.9 132.5,298.0 132.9,298.1 133.2,298.4 133.5,298.7 133.9,298.9 134.2,299.0 134.6,298.9 135.1,298.7 135.5,298.4 135.9,298.1 136.4,297.9 136.8,297.7 137.1,297.6 137.4,297.6 137.7,297.7 138.0,297.7 138.4,297.7 138.8,297.7 139.2,297.6 139.6,297.6 140.1,297.5 140.5,297.4 140.9,297.3 141.4,297.3 141.8,297.2 142.4,297.2 143.0,297.3 143.7,297.4 144.3,297.5 144.9,297.5 145.2,297.7 145.6,298.0 145.9,298.3 146.3,298.5 146.6,298.4 147.0,298.3 147.5,298.1 147.9,297.8 148.3,297.5 148.7,297.3 149.1,297.1 149.4,297.0 149.8,297.0 150.0,297.0 150.4,297.0 150.8,297.0 151.1,297.0 151.5,296.9 152.0,296.8 152.4,296.7 152.8,296.6 153.2,296.5 153.7,296.5 154.2,296.4 154.8,296.4 155.4,296.4 156.1,296.5 156.7,296.7 157.3,296.6 157.6,296.8 158.0,297.1 158.3,297.4 158.7,297.5 159.1,297.4 159.5,297.2 159.9,297.0 160.3,296.7 160.7,296.4 161.1,296.1 161.5,295.9 161.8,295.9 162.1,295.9 162.4,295.9 162.8,295.9 163.1,295.8 163.5,295.8 163.9,295.7 164.4,295.6 164.8,295.4 165.2,295.3 165.6,295.3 166.1,295.2 166.6,295.1 167.2,295.1 167.8,295.1 168.5,295.2 169.1,295.2 169.6,295.2 170.0,295.4 170.3,295.7 170.7,295.9 171.0,296.0 171.4,295.9 171.8,295.7 172.2,295.4 172.6,295.1 173.0,294.8 173.4,294.5 173.8,294.3 174.1,294.3 174.4,294.3 174.7,294.3 175.0,294.2 175.4,294.2 175.8,294.1 176.2,294.0 176.6,293.9 177.1,293.7 177.4,293.6 177.9,293.5 178.4,293.4 178.9,293.3 179.5,293.3 180.2,293.2 180.8,293.3 181.4,293.3 181.9,293.3 182.2,293.6 182.6,293.8 183.0,294.0 183.3,294.0 183.7,293.9 184.1,293.6 184.5,293.3 184.9,293.0 185.3,292.7 185.7,292.4 186.0,292.2 186.3,292.2 186.6,292.2 186.9,292.1 187.3,292.1 187.6,292.0 188.0,291.9 188.5,291.8 188.9,291.6 189.3,291.5 189.7,291.3 190.1,291.2 190.6,291.1 191.1,291.0 191.7,291.0 192.4,290.9 193.1,291.0 193.6,290.9 194.1,290.9 194.4,291.2 194.8,291.4 195.2,291.5 195.6,291.5 195.9,291.3 196.3,291.1 196.7,290.7 197.1,290.4 197.5,290.0 197.8,289.8 198.1,289.6 198.4,289.6 198.7,289.6 199.1,289.5 199.4,289.4 199.8,289.4 200.2,289.2 200.6,289.1 201.0,288.9 201.4,288.7 201.8,288.6 202.2,288.5 202.7,288.3 203.2,288.2 203.9,288.1 204.6,288.1 205.2,288.1 205.8,288.1 206.2,288.1 206.5,288.4 206.9,288.6 207.3,288.7 207.7,288.6 208.1,288.4 208.4,288.0 208.8,287.7 209.2,287.3 209.5,287.0 209.9,286.7 210.2,286.6 210.5,286.5 210.8,286.5 211.1,286.5 211.5,286.4 211.8,286.2 212.2,286.1 212.6,285.9 213.0,285.7 213.4,285.6 213.8,285.4 214.3,285.3 214.7,285.1 215.3,285.0 215.9,284.8 216.6,284.8 217.2,284.8 217.7,284.7 218.1,284.8 218.5,285.0 218.9,285.2 219.3,285.2 219.7,285.1 220.0,284.9 220.4,284.5 220.7,284.1 221.1,283.8 221.4,283.4 221.8,283.2 222.0,283.1 222.3,283.0 222.6,283.0 223.0,282.9 223.3,282.8 223.7,282.6 224.1,282.5 224.5,282.3 224.9,282.0 225.3,281.9 225.7,281.7 226.1,281.5 226.6,281.3 227.2,281.2 227.8,281.1 228.5,281.0 229.1,281.0 229.6,280.9 230.0,281.0 230.3,281.2 230.8,281.4 231.1,281.3 231.5,281.2 231.8,280.9 232.2,280.5 232.5,280.1 232.9,279.8 233.2,279.4 233.5,279.2 233.8,279.1 234.1,279.0 234.4,278.9 234.7,278.8 235.1,278.7 235.5,278.6 235.8,278.4 236.2,278.2 236.6,277.9 237.0,277.7 237.4,277.6 237.8,277.4 238.3,277.2 238.9,277.0 239.6,276.9 240.2,276.8 240.8,276.7 241.3,276.6 241.7,276.8 242.1,277.0 242.5,277.1 242.8,277.0 243.2,276.8 243.5,276.5 243.8,276.1 244.2,275.7 244.5,275.3 244.8,275.0 245.1,274.7 245.4,274.6 245.7,274.6 246.0,274.5 246.3,274.4 246.7,274.2 247.0,274.0 247.4,273.8 247.8,273.6 248.2,273.3 248.5,273.1 248.9,273.0 249.4,272.7 249.9,272.5 250.5,272.4 251.1,272.2 251.8,272.1 252.3,272.0 252.8,271.9 253.2,272.1 253.6,272.2 254.0,272.3 254.3,272.2 254.7,271.9 255.0,271.6 255.3,271.2 255.6,270.8 255.9,270.4 256.2,270.0 256.5,269.8 256.8,269.7 257.0,269.6 257.4,269.5 257.7,269.4 258.0,269.2 258.4,269.0 258.8,268.8 259.1,268.5 259.5,268.3 259.8,268.1 260.3,267.9 260.7,267.6 261.2,267.4 261.8,267.2 262.5,267.1 263.1,267.0 263.7,266.8 264.1,266.8 264.5,266.9 264.9,267.0 265.3,267.1 265.6,266.9 265.9,266.6 266.2,266.2 266.5,265.8 266.8,265.4 267.1,265.0 267.4,264.7 267.7,264.5 268.0,264.4 268.2,264.3 268.6,264.2 268.9,264.0 269.2,263.8 269.6,263.6 270.0,263.4 270.3,263.1 270.6,262.8 271.0,262.6 271.4,262.4 271.8,262.1 272.4,261.9 273.0,261.7 273.6,261.5 274.2,261.4 274.7,261.1 275.1,261.2 275.5,261.3 276.0,261.4 276.3,261.4 276.7,261.2 277.0,260.9 277.3,260.5 277.5,260.0 277.8,259.6 278.1,259.2 278.4,258.9 278.6,258.7 278.9,258.6 279.2,258.5 279.5,258.3 279.8,258.1 280.2,257.9 280.5,257.7 280.9,257.5 281.2,257.1 281.6,256.9 281.9,256.7 282.3,256.4 282.7,256.1 283.3,255.9 283.9,255.6 284.6,255.5 285.1,255.3 285.6,255.1 286.0,255.1 286.4,255.3 286.9,255.3 287.2,255.2 287.5,255.0 287.8,254.6 288.1,254.2 288.3,253.8 288.6,253.3 288.9,252.9 289.1,252.6 289.4,252.5 289.6,252.4 289.9,252.2 290.2,252.1 290.6,251.9 290.9,251.6 291.2,251.4 291.6,251.1 291.9,250.8 292.2,250.5 292.6,250.3 293.0,250.0 293.4,249.7 294.0,249.5 294.6,249.2 295.2,249.0 295.8,248.8 296.2,248.6 296.6,248.7 297.0,248.8 297.5,248.8 297.8,248.7 298.1,248.4 298.4,248.0 298.6,247.6 298.8,247.1 299.1,246.7 299.3,246.3 299.6,246.0 299.8,245.8 300.1,245.7 300.4,245.6 300.7,245.4 301.0,245.2 301.3,244.9 301.7,244.6 302.0,244.3 302.3,244.0 302.6,243.8 303.0,243.5 303.4,243.2 303.8,242.9 304.4,242.6 305.0,242.3 305.6,242.1 306.1,241.8 306.5,241.7 307.0,241.8 307.4,241.8 307.8,241.8 308.1,241.6 308.4,241.3 308.7,240.9 308.9,240.5 309.1,240.0 309.3,239.6 309.6,239.2 309.8,238.9 310.0,238.7 310.3,238.6 310.6,238.5 310.9,238.3 311.2,238.0 311.5,237.8 311.8,237.5 312.1,237.1 312.4,236.8 312.7,236.6 313.1,236.3 313.5,235.9 313.9,235.7 314.5,235.3 315.1,235.0 315.7,234.8 316.2,234.5 316.6,234.4 317.0,234.5 317.4,234.6 317.8,234.5 318.1,234.3 318.4,233.9 318.6,233.5 318.8,233.0 319.0,232.6 319.2,232.1 319.4,231.7 319.6,231.5 319.9,231.3 320.2,231.2 320.4,231.0 320.7,230.8 321.0,230.5 321.4,230.3 321.7,230.0 321.9,229.6 322.2,229.3 322.5,229.0 322.9,228.7 323.2,228.3 323.7,228.0 324.3,227.7 324.9,227.4 325.5,227.2 325.9,226.8 326.3,226.8 326.7,226.8 327.2,226.9 327.5,226.7 327.8,226.5 328.0,226.1 328.2,225.7 328.4,225.2 328.6,224.7 328.8,224.3 329.0,223.9 329.2,223.7 329.5,223.5 329.7,223.4 330.0,223.2 330.3,222.9 330.6,222.6 330.9,222.4 331.2,222.0 331.4,221.7 331.7,221.4 332.0,221.1 332.4,220.7 332.7,220.4 333.2,220.0 333.8,219.7 334.4,219.4 334.9,219.1 335.3,218.8 335.7,218.8 336.2,218.8 336.6,218.8 336.9,218.6 337.2,218.3 337.4,217.9 337.6,217.5 337.7,217.0 337.9,216.5" fill="none" stroke="#4ea1ff" stroke-width="2.5"/>
<circle cx="82.1" cy="294.0" r="6" fill="#39d98a"/>
<text x="24.0" y="580.0" fill="#c8d2e0" font-family="monospace" font-size="14">θ=90° → left 未到達</text>
</svg>
